<svg id="Componente_2_5" data-name="Componente 2 – 5" xmlns="http://www.w3.org/2000/svg" width="44" height="44" viewBox="0 0 44 44">
  <path id="Sustracción_1" data-name="Sustracción 1" d="M22,44A22,22,0,0,1,6.444,6.444,22,22,0,1,1,37.556,37.556,21.857,21.857,0,0,1,22,44Zm5.274-21.767c2.907,0,2.907,2.755,2.907,4.767v8.764h5.578l.006-9.889c0-4.448-.811-8.565-6.7-8.565a5.9,5.9,0,0,0-5.289,2.907H23.7V17.761H18.337v18h5.584V26.849C23.921,24.566,24.319,22.233,27.273,22.233ZM9.245,17.761v18h5.59v-18ZM12.037,8.8a3.253,3.253,0,1,0,3.237,3.237A3.241,3.241,0,0,0,12.037,8.8Z" fill="#161615"/>
</svg>
