<svg xmlns="http://www.w3.org/2000/svg" width="39" height="39" viewBox="0 0 39 39">
  <path id="Sustracción_2" data-name="Sustracción 2" d="M-128.5,39a19.372,19.372,0,0,1-13.788-5.711A19.372,19.372,0,0,1-148,19.5a19.373,19.373,0,0,1,5.711-13.789A19.371,19.371,0,0,1-128.5,0a19.373,19.373,0,0,1,13.789,5.711A19.373,19.373,0,0,1-109,19.5a19.371,19.371,0,0,1-5.712,13.788A19.373,19.373,0,0,1-128.5,39Zm-9.175-28.674a2.29,2.29,0,0,0-2.281,2.293l-.012,13.762a2.3,2.3,0,0,0,2.293,2.293h18.349a2.3,2.3,0,0,0,2.293-2.293V12.619a2.3,2.3,0,0,0-2.293-2.293Zm9.175,10.321h0l-9.174-5.734V12.619l9.175,5.734,9.175-5.734v2.294l-9.174,5.734Z" transform="translate(148)" fill="#009a17"/>
</svg>
