<svg xmlns="http://www.w3.org/2000/svg" width="39.001" height="39" viewBox="0 0 39.001 39">
  <path id="Sustracción_3" data-name="Sustracción 3" d="M-5.5,39a19.373,19.373,0,0,1-13.789-5.711A19.371,19.371,0,0,1-25,19.5,19.373,19.373,0,0,1-19.289,5.711,19.373,19.373,0,0,1-5.5,0,19.373,19.373,0,0,1,8.289,5.711,19.373,19.373,0,0,1,14,19.5,19.371,19.371,0,0,1,8.289,33.289,19.373,19.373,0,0,1-5.5,39ZM-11.235,8.319a1.086,1.086,0,0,0-.24.027L-16.134,9.42a1.07,1.07,0,0,0-.833,1.049A20.809,20.809,0,0,0,3.818,31.254a1.071,1.071,0,0,0,1.049-.833l1.076-4.658a1.09,1.09,0,0,0-.628-1.237L.3,22.376a1.067,1.067,0,0,0-.421-.086,1.07,1.07,0,0,0-.832.4L-3.18,25.4a16.639,16.639,0,0,1-7.938-7.937L-8.4,15.24a1.078,1.078,0,0,0,.309-1.255l-2.15-5.017A1.082,1.082,0,0,0-11.235,8.319Z" transform="translate(25)" fill="#009a17"/>
</svg>
