<svg xmlns="http://www.w3.org/2000/svg" width="120.051" height="119.18" viewBox="0 0 120.051 119.18">
  <g id="Grupo_13996" data-name="Grupo 13996" transform="translate(-69.949)">
    <circle id="bowls-of-beans-showing-the-process-of-coffee-produ-JEYEFGP" cx="51" cy="51" r="51" transform="translate(88 17.18)" fill="#99d7a2"/>
    <g id="Grupo_13844" data-name="Grupo 13844" transform="translate(69.949)">
      <path id="Trazado_8036" data-name="Trazado 8036" d="M185.667,148.486a4.777,4.777,0,0,1-3.042,2.536c-1.664.566-3.3,1.23-4.915,1.923a2.008,2.008,0,0,0-.957.952q-1.5,3.43-2.875,6.916a1.852,1.852,0,0,0-.006,1.261c.763,1.855,1.607,3.677,2.406,5.518a3.251,3.251,0,0,1-.8,4.213q-5.674,5.7-11.372,11.369a3.249,3.249,0,0,1-4.218.777c-1.808-.786-3.594-1.628-5.422-2.363a2.158,2.158,0,0,0-1.449.038q-3.392,1.32-6.726,2.782a2.154,2.154,0,0,0-1.039,1.006c-.775,1.811-1.451,3.665-2.175,5.5a3.282,3.282,0,0,1-3.532,2.435q-8.094.007-16.188,0a3.213,3.213,0,0,1-3.4-2.306c-.756-1.9-1.456-3.816-2.251-5.7a2,2,0,0,0-.985-.927c-2.224-.97-4.464-1.907-6.727-2.781a2.3,2.3,0,0,0-1.54,0c-1.831.728-3.618,1.567-5.428,2.347a3.218,3.218,0,0,1-4.126-.783q-5.733-5.713-11.446-11.445a3.205,3.205,0,0,1-.774-4.125c.8-1.842,1.647-3.66,2.4-5.518a2,2,0,0,0-.017-1.357q-1.351-3.435-2.835-6.817A2.148,2.148,0,0,0,85.2,152.92c-1.812-.774-3.664-1.452-5.5-2.176a3.26,3.26,0,0,1-2.4-3.553q-.007-7.987,0-15.974c0-2.024.626-2.916,2.543-3.665,1.8-.7,3.619-1.38,5.4-2.136a2,2,0,0,0,.962-.947q1.5-3.428,2.877-6.914a1.849,1.849,0,0,0,.018-1.261c-.777-1.888-1.618-3.75-2.454-5.612a3.314,3.314,0,0,1,.753-4.048q5.773-5.747,11.52-11.52a3.32,3.32,0,0,1,4.046-.773c1.833.817,3.66,1.65,5.521,2.4a2.148,2.148,0,0,0,1.45,0q3.439-1.341,6.82-2.83a2.011,2.011,0,0,0,.957-.954c.694-1.616,1.354-3.252,1.924-4.915A4.748,4.748,0,0,1,122.17,85H140.8a4.723,4.723,0,0,1,2.532,3.042c.573,1.662,1.224,3.3,1.928,4.912a2.174,2.174,0,0,0,1.051.993q3.333,1.458,6.726,2.779a2.151,2.151,0,0,0,1.447.027c1.827-.736,3.612-1.577,5.42-2.363a3.237,3.237,0,0,1,4.213.793q5.7,5.673,11.369,11.366a3.242,3.242,0,0,1,.793,4.214c-.8,1.84-1.643,3.662-2.4,5.517a1.848,1.848,0,0,0,.011,1.261q1.377,3.481,2.874,6.914a2.01,2.01,0,0,0,.959.95c1.616.694,3.25,1.356,4.914,1.923a4.765,4.765,0,0,1,3.041,2.535ZM83.649,145.463c1.935.752,3.8,1.5,5.677,2.2a4.086,4.086,0,0,1,2.492,2.65c1.168,3.086,2.454,6.131,3.789,9.149a3.79,3.79,0,0,1,.127,3.338c-.762,1.664-1.453,3.361-2.223,5.021a.949.949,0,0,0,.23,1.274q3.959,3.9,7.858,7.852a.89.89,0,0,0,1.187.217c1.694-.78,3.422-1.488,5.118-2.264a3.714,3.714,0,0,1,3.241.122q4.634,2.022,9.346,3.864a3.748,3.748,0,0,1,2.388,2.2c.65,1.71,1.356,3.4,1.987,5.118a1.007,1.007,0,0,0,1.114.816q5.5-.055,11,0a1,1,0,0,0,1.114-.814c.6-1.654,1.288-3.277,1.9-4.928a4.058,4.058,0,0,1,2.676-2.459c3.055-1.152,6.071-2.416,9.053-3.748a3.864,3.864,0,0,1,3.434-.136c1.662.766,3.359,1.459,5.02,2.227a.888.888,0,0,0,1.187-.214q3.9-3.951,7.858-7.851a.949.949,0,0,0,.232-1.274c-.769-1.66-1.459-3.358-2.223-5.021a3.78,3.78,0,0,1,.124-3.337c1.334-3.019,2.618-6.063,3.788-9.149a4.049,4.049,0,0,1,2.493-2.646q2.53-.922,5.016-1.96a1.127,1.127,0,0,0,.636-.762c.04-4.015.028-8.031.028-12.072-1.925-.747-3.785-1.5-5.667-2.189a4.061,4.061,0,0,1-2.5-2.639c-1.169-3.086-2.452-6.131-3.786-9.15a3.782,3.782,0,0,1-.134-3.337c.765-1.662,1.455-3.36,2.22-5.022a.95.95,0,0,0-.216-1.276q-3.923-3.856-7.78-7.779a1.008,1.008,0,0,0-1.359-.254c-1.624.764-3.294,1.431-4.923,2.184a3.949,3.949,0,0,1-3.53-.176c-2.913-1.313-5.864-2.555-8.859-3.664a4.258,4.258,0,0,1-2.858-2.688c-.656-1.853-1.42-3.668-2.152-5.535-4.061,0-8.079-.012-12.1.03-.254,0-.617.385-.736.671-.717,1.722-1.391,3.462-2.054,5.206a3.741,3.741,0,0,1-2.384,2.2q-4.711,1.837-9.344,3.869a3.806,3.806,0,0,1-3.342.09c-1.632-.749-3.3-1.421-4.924-2.181a1.009,1.009,0,0,0-1.363.235q-3.854,3.927-7.779,7.781a.947.947,0,0,0-.238,1.273c.76,1.626,1.436,3.291,2.189,4.921a3.957,3.957,0,0,1-.136,3.532c-1.326,2.945-2.572,5.931-3.7,8.956a4.2,4.2,0,0,1-2.626,2.789c-1.658.589-3.3,1.24-4.914,1.93a1.209,1.209,0,0,0-.641.86C83.635,137.46,83.649,141.409,83.649,145.463Z" transform="translate(-77.297 -85)"/>
      <path id="Trazado_8037" data-name="Trazado 8037" d="M87.56,149.373c0-4.054-.014-8,.028-11.95a1.209,1.209,0,0,1,.641-.86c1.618-.689,3.256-1.34,4.914-1.93a4.2,4.2,0,0,0,2.626-2.789c1.131-3.025,2.377-6.011,3.7-8.956a3.957,3.957,0,0,0,.136-3.532c-.753-1.63-1.429-3.3-2.189-4.921a.947.947,0,0,1,.238-1.273q3.92-3.86,7.779-7.781a1.009,1.009,0,0,1,1.363-.235c1.626.761,3.292,1.433,4.924,2.181a3.806,3.806,0,0,0,3.342-.09q4.63-2.032,9.344-3.869a3.741,3.741,0,0,0,2.384-2.2c.663-1.743,1.337-3.484,2.054-5.206.119-.286.483-.668.736-.671,4.018-.042,8.036-.03,12.1-.03.731,1.866,1.5,3.681,2.152,5.535a4.258,4.258,0,0,0,2.858,2.688c3,1.108,5.946,2.351,8.859,3.664a3.949,3.949,0,0,0,3.53.176c1.629-.753,3.3-1.42,4.923-2.184a1.008,1.008,0,0,1,1.359.254q3.858,3.922,7.78,7.779a.95.95,0,0,1,.216,1.276c-.766,1.662-1.456,3.36-2.22,5.022a3.782,3.782,0,0,0,.134,3.337c1.334,3.019,2.617,6.064,3.786,9.15a4.061,4.061,0,0,0,2.5,2.639c1.882.692,3.743,1.443,5.667,2.189,0,4.041.012,8.057-.028,12.072a1.127,1.127,0,0,1-.636.762q-2.484,1.037-5.016,1.96a4.049,4.049,0,0,0-2.493,2.646c-1.17,3.086-2.454,6.13-3.788,9.149a3.78,3.78,0,0,0-.124,3.337c.764,1.663,1.454,3.361,2.223,5.021a.949.949,0,0,1-.232,1.274q-3.958,3.9-7.858,7.851a.888.888,0,0,1-1.187.214c-1.661-.769-3.358-1.461-5.02-2.227a3.864,3.864,0,0,0-3.434.136c-2.982,1.332-6,2.6-9.053,3.748a4.058,4.058,0,0,0-2.676,2.459c-.608,1.651-1.294,3.274-1.9,4.928a1,1,0,0,1-1.114.814q-5.5-.055-11,0a1.007,1.007,0,0,1-1.114-.816c-.631-1.718-1.337-3.408-1.987-5.118a3.748,3.748,0,0,0-2.388-2.2q-4.71-1.838-9.346-3.864a3.714,3.714,0,0,0-3.241-.122c-1.7.775-3.425,1.483-5.118,2.264a.89.89,0,0,1-1.187-.217q-3.9-3.952-7.858-7.852a.949.949,0,0,1-.23-1.274c.77-1.66,1.461-3.357,2.223-5.021a3.79,3.79,0,0,0-.127-3.338c-1.335-3.018-2.621-6.063-3.789-9.149a4.086,4.086,0,0,0-2.492-2.65C91.356,150.872,89.494,150.125,87.56,149.373Zm47.753,15.933c8.324,0,16.649-.013,24.973.012a3.75,3.75,0,0,0,3.311-1.692,34.128,34.128,0,0,0,6.239-26.23,34.941,34.941,0,0,0-41.4-28.54c-24.786,5.021-36.179,34.212-21.343,54.643a4.034,4.034,0,0,0,3.567,1.825C118.875,165.284,127.094,165.305,135.312,165.305Z" transform="translate(-81.208 -88.91)" fill="#fff"/>
      <path id="Trazado_8038" data-name="Trazado 8038" d="M143.266,173.248c-8.219,0-16.437-.021-24.655.019a4.034,4.034,0,0,1-3.567-1.825c-14.837-20.431-3.443-49.622,21.343-54.643a34.941,34.941,0,0,1,41.4,28.54,34.128,34.128,0,0,1-6.239,26.23,3.75,3.75,0,0,1-3.311,1.692C159.915,173.235,151.59,173.248,143.266,173.248Zm-17.808-44.424c.722.659,1.432,1.243,2.066,1.9a3.173,3.173,0,1,1-4.5,4.468c-.653-.637-1.232-1.352-1.906-2.1a28.569,28.569,0,0,0-6.16,14.761h1.165c3.488.006,4.974.942,4.992,3.147s-1.5,3.2-4.94,3.2h-1.214a28.426,28.426,0,0,0,4.12,11.869,1.535,1.535,0,0,0,1.507.847c6.136-.032,12.273-.018,18.41-.018q13.542,0,27.086-.016a1.628,1.628,0,0,0,1.184-.386,27.4,27.4,0,0,0,4.458-12.3c-.974,0-1.883.011-2.792,0a3.178,3.178,0,1,1,.028-6.344c.9-.011,1.805,0,2.773,0a28.763,28.763,0,0,0-6.18-14.773c-.661.743-1.232,1.464-1.886,2.1a3.175,3.175,0,1,1-4.438-4.522c.63-.639,1.324-1.214,2-1.829-3.906-3.345-10.84-6.191-14.715-6.088,0,.87.007,1.745,0,2.62a3.183,3.183,0,1,1-6.346.015c-.009-.894,0-1.788,0-2.686C135.61,122.919,129.38,125.5,125.458,128.824Z" transform="translate(-89.161 -96.853)"/>
      <path id="Trazado_8039" data-name="Trazado 8039" d="M129.485,132.887c3.923-3.321,10.153-5.9,14.715-6.13,0,.9-.007,1.792,0,2.686a3.183,3.183,0,1,0,6.346-.015c.009-.875,0-1.75,0-2.62,3.876-.1,10.809,2.742,14.715,6.088-.677.615-1.371,1.19-2,1.829a3.175,3.175,0,1,0,4.438,4.522c.653-.637,1.225-1.359,1.886-2.1a28.763,28.763,0,0,1,6.18,14.773c-.968,0-1.871-.009-2.773,0a3.178,3.178,0,1,0-.028,6.344c.909.013,1.818,0,2.792,0a27.4,27.4,0,0,1-4.458,12.3,1.628,1.628,0,0,1-1.184.386q-13.543.032-27.086.016c-6.137,0-12.273-.014-18.41.018a1.535,1.535,0,0,1-1.508-.847,28.427,28.427,0,0,1-4.12-11.869h1.214c3.441,0,4.958-.986,4.94-3.2s-1.5-3.141-4.992-3.147h-1.165a28.569,28.569,0,0,1,6.16-14.761c.674.748,1.253,1.462,1.906,2.1a3.173,3.173,0,1,0,4.5-4.468C130.917,134.13,130.206,133.546,129.485,132.887Zm18.482,31.723a9.533,9.533,0,0,0,6.409-15.918,1.22,1.22,0,0,1-.289-1.543c.763-1.7,1.453-3.435,2.153-5.163.8-1.979.139-3.789-1.627-4.5a3.219,3.219,0,0,0-4.241,2.058c-.708,1.687-1.434,3.368-2.086,5.077a1.27,1.27,0,0,1-1.347.98,9.494,9.494,0,0,0-9.081,9.765C137.971,160.459,142.263,164.619,147.967,164.61Z" transform="translate(-93.188 -100.916)" fill="#009a17"/>
      <path id="Trazado_8040" data-name="Trazado 8040" d="M159.587,171.075c-5.7.009-10-4.151-10.109-9.24a9.494,9.494,0,0,1,9.081-9.765,1.27,1.27,0,0,0,1.347-.98c.652-1.709,1.378-3.39,2.086-5.077a3.219,3.219,0,0,1,4.241-2.058c1.766.707,2.429,2.516,1.627,4.5-.7,1.728-1.39,3.462-2.153,5.163a1.22,1.22,0,0,0,.289,1.543,9.533,9.533,0,0,1-6.409,15.918Zm-.58-12.691a3.171,3.171,0,1,0,3.157,3.158A3.209,3.209,0,0,0,159.007,158.385Z" transform="translate(-104.808 -107.381)"/>
      <path id="Trazado_8041" data-name="Trazado 8041" d="M162.917,167.418a3.171,3.171,0,1,1-3.184,3.131A3.209,3.209,0,0,1,162.917,167.418Z" transform="translate(-108.718 -116.414)" fill="#fff"/>
    </g>
  </g>
</svg>
