<svg xmlns="http://www.w3.org/2000/svg" width="96.713" height="96.663" viewBox="0 0 96.713 96.663">
  <g id="Grupo_13824" data-name="Grupo 13824" transform="translate(0 0)">
    <path id="Trazado_7881" data-name="Trazado 7881" d="M-10.254,981.412a30.519,30.519,0,0,1,5.319-5.965,70.025,70.025,0,0,1,25.826-15.335,53.324,53.324,0,0,1,18.726-2.837,57.853,57.853,0,0,1,21.252,4.984,70.063,70.063,0,0,1,22.062,15.058c.926.939,1.8,1.933,2.64,2.95a2.906,2.906,0,0,1,0,4.179,59.348,59.348,0,0,1-11.766,10.682A66.329,66.329,0,0,1,47.1,1006.635a52.288,52.288,0,0,1-25.218-1.741A69.046,69.046,0,0,1-6.753,987.481a21.284,21.284,0,0,1-3.5-4.182Zm48.321-18.247A19.19,19.19,0,1,0,57.237,982.4,19.221,19.221,0,0,0,38.067,963.165Zm20.307,33.887c.432-.14.553-.17.666-.218.347-.147.7-.29,1.035-.453A70.638,70.638,0,0,0,78.831,983.1c.591-.576.612-.9.012-1.484A69.2,69.2,0,0,0,60,968.3c-.439-.208-.891-.39-1.336-.583a26.6,26.6,0,0,1,4.475,14.633A25,25,0,0,1,58.374,997.052ZM17.6,967.666a39.177,39.177,0,0,0-5.066,2.468A71.238,71.238,0,0,0-2.844,981.721c-.511.5-.517.814.009,1.277.871.767,1.681,1.6,2.54,2.387A66.8,66.8,0,0,0,16.4,996.552a1.886,1.886,0,0,0,1.11.345C11.4,987.176,11.4,977.531,17.6,967.666Z" transform="translate(10.254 -934.055)" fill="#009a17"/>
    <path id="Trazado_7882" data-name="Trazado 7882" d="M233.632,834.576a3.307,3.307,0,0,1,1.979,3.418c-.078,1.976-.006,3.956-.025,5.934a2.9,2.9,0,1,1-5.8,0c-.018-1.978.055-3.959-.025-5.934a3.305,3.305,0,0,1,1.979-3.418Z" transform="translate(-184.388 -834.576)" fill="#009a17"/>
    <path id="Trazado_7883" data-name="Trazado 7883" d="M115.78,856.233a2.752,2.752,0,0,1,2.307,1.45c1.293,2.222,2.583,4.446,3.813,6.7a2.919,2.919,0,0,1-5.041,2.94c-1.357-2.256-2.683-4.535-3.9-6.868A2.918,2.918,0,0,1,115.78,856.233Z" transform="translate(-89.392 -852.139)" fill="#009a17"/>
    <path id="Trazado_7884" data-name="Trazado 7884" d="M333.122,856.235c2.369.015,3.867,2.105,2.99,3.966a63.293,63.293,0,0,1-4.189,7.373,2.9,2.9,0,0,1-4.979-2.882c1.3-2.476,2.713-4.892,4.149-7.292A2.448,2.448,0,0,1,333.122,856.235Z" transform="translate(-262.975 -852.141)" fill="#009a17"/>
    <path id="Trazado_7885" data-name="Trazado 7885" d="M115.732,1270.323c-2.352-.031-3.841-2.142-2.963-3.98a67.32,67.32,0,0,1,4.18-7.353,2.83,2.83,0,0,1,3.7-.8,2.8,2.8,0,0,1,1.3,3.632c-1.3,2.5-2.73,4.936-4.181,7.354A2.428,2.428,0,0,1,115.732,1270.323Z" transform="translate(-89.306 -1177.816)" fill="#009a17"/>
    <path id="Trazado_7886" data-name="Trazado 7886" d="M333.247,1270.3a2.739,2.739,0,0,1-2.232-1.43c-1.3-2.227-2.59-4.458-3.824-6.721a2.919,2.919,0,0,1,5.053-2.921c1.345,2.235,2.658,4.493,3.869,6.8A2.929,2.929,0,0,1,333.247,1270.3Z" transform="translate(-263.1 -1177.797)" fill="#009a17"/>
    <path id="Trazado_7887" data-name="Trazado 7887" d="M229.876,1286.131c0-1.13-.02-2.259.006-3.388a2.938,2.938,0,0,1,2.9-2.857,2.9,2.9,0,0,1,2.875,2.788q.061,3.481,0,6.964a2.8,2.8,0,0,1-2.9,2.728,2.85,2.85,0,0,1-2.883-2.753q0-.094,0-.188Q229.875,1287.778,229.876,1286.131Z" transform="translate(-184.476 -1195.704)" fill="#009a17"/>
    <path id="Trazado_7888" data-name="Trazado 7888" d="M193.584,1048.175a9.766,9.766,0,1,1,9.722,9.766A9.837,9.837,0,0,1,193.584,1048.175Zm9.784-3.891a3.892,3.892,0,1,0,3.873,3.956A4.006,4.006,0,0,0,203.368,1044.284Z" transform="translate(-155.05 -999.875)" fill="#009a17"/>
  </g>
</svg>
