<svg xmlns="http://www.w3.org/2000/svg" width="108.344" height="124.425" viewBox="0 0 108.344 124.425">
  <g id="Grupo_13995" data-name="Grupo 13995" transform="translate(-74.636)">
    <circle id="bowls-of-beans-showing-the-process-of-coffee-produ-JEYEFGP" cx="51" cy="51" r="51" transform="translate(78.923 22.425)" fill="#99d7a2"/>
    <g id="Grupo_13841" data-name="Grupo 13841" transform="translate(74.636)">
      <path id="Trazado_8013" data-name="Trazado 8013" d="M401.268,182.724v2.54c-.083.3-.168.6-.249.907A9.453,9.453,0,0,1,394.831,193c-.59.215-1.21.35-1.816.521h-2.539c-2.962-.525-5.115-2.311-7.116-4.42-2.279-2.4-4.668-4.7-7.01-7.037a9.522,9.522,0,0,1-2.431-10.562,1.07,1.07,0,0,0-.1-.9c-1.509-1.573-3.063-3.1-4.584-4.625a2.536,2.536,0,0,0-1.865,2.787c.111,5.105.071,10.216.03,15.324a9.462,9.462,0,0,1-6.329,8.878c-.624.222-1.274.375-1.911.56H301.177a2.2,2.2,0,0,0-.384-.163,9.469,9.469,0,0,1-7.866-9.713q-.008-40.946.011-81.89a10.985,10.985,0,0,1,.327-2.715,9.424,9.424,0,0,1,9.048-7.1c3.274-.042,6.549-.008,9.823-.008.087-.354.161-.625.222-.9a7.308,7.308,0,0,1,7.083-5.862q10.737-.058,21.474,0a7.334,7.334,0,0,1,6.952,5.367c.124.437.205.885.321,1.39.482,0,.938.018,1.392,0,15.876-.719,18.5,1.933,17.862,17.889-.2,5.071-.019,10.156-.046,15.234a1.641,1.641,0,0,0,.775,1.559,24.256,24.256,0,0,1,6.07,33.949c-.193.277-.379.558-.606.894,1.584,1.561,3.072,3.064,4.615,4.509a1.27,1.27,0,0,0,1.068.173,9.468,9.468,0,0,1,10.325,2.3c2.394,2.344,4.7,4.782,7.125,7.088C398.9,177.55,400.733,179.719,401.268,182.724Zm-65.087-52.7h-1.055q-12.959,0-25.919.007a3.27,3.27,0,0,1-3.278-1.864c-1.046-2.2.579-4.488,3.185-4.49q18.036-.01,36.073-.015a6.165,6.165,0,0,0,1.753-.274,23.211,23.211,0,0,1,9.494-1.024c1.524.176,3.037.446,4.587.677.014-.15.037-.287.037-.425,0-7.019.013-14.037-.006-21.056a3.163,3.163,0,0,0-3.371-3.28c-2.327-.016-4.655,0-6.982,0h-2.547c0,1.026,0,1.9,0,2.782a3.223,3.223,0,0,1-3.519,3.565q-14.494.008-28.987,0a3.21,3.21,0,0,1-3.466-3.51c-.006-.935,0-1.87,0-2.836-3.2,0-6.232,0-9.264,0-2.4,0-3.643,1.246-3.643,3.652q0,40.789,0,81.577c0,2.407,1.243,3.658,3.638,3.659q27.241,0,54.482,0c2.409,0,3.664-1.244,3.667-3.631q.008-6.243,0-12.485c0-.33-.036-.66-.057-1.03-.241.044-.379.061-.513.095a24.24,24.24,0,0,1-16.883-1.694,3.413,3.413,0,0,0-1.416-.288c-3.985-.022-7.969-.012-11.954-.012q-10.578,0-21.158,0a3.182,3.182,0,1,1-.048-6.348q12.483-.019,24.966,0h1.1c-1.011-1.783-2.079-3.438-2.9-5.208a1.719,1.719,0,0,0-1.884-1.163c-7.053.04-14.105.014-21.158.028a3.24,3.24,0,0,1-3.251-1.907c-1-2.168.617-4.44,3.153-4.444q9.891-.019,19.783,0h1.274v-6.349h-1.045q-10.049,0-20.1,0a3.158,3.158,0,0,1-3.232-2.37,3.013,3.013,0,0,1,1.392-3.457,4.775,4.775,0,0,1,2.114-.5c7.37-.035,14.74-.014,22.11-.041a1.5,1.5,0,0,0,1.1-.48C333.726,133.978,334.917,132.032,336.181,130.025Zm18.138,34.524a17.985,17.985,0,1,0-17.981-17.962A17.942,17.942,0,0,0,354.319,164.549Zm-12.63-66.321a.938.938,0,0,0,.1-.243c.009-1.62.02-3.24.018-4.86,0-1.324-.291-1.615-1.606-1.616q-5.812-.007-11.622,0c-2.853,0-5.706.008-8.559-.006-.744,0-1.428.152-1.457,1-.063,1.89-.02,3.783-.02,5.724Zm41.339,73.448a3.69,3.69,0,0,0-3.112,1.988,3.2,3.2,0,0,0,.713,3.694q4.354,4.4,8.75,8.752a3.178,3.178,0,1,0,4.448-4.522c-2.876-2.907-5.756-5.813-8.692-8.661A10.376,10.376,0,0,0,383.028,171.676Z" transform="translate(-292.924 -85.143)"/>
      <path id="Trazado_8015" data-name="Trazado 8015" d="M454.664,255.185c.606-.171,1.226-.306,1.816-.521a9.453,9.453,0,0,0,6.188-6.826c.08-.3.166-.6.249-.907v8.254Z" transform="translate(-354.572 -146.81)" fill="#fff"/>
      <path id="Trazado_8016" data-name="Trazado 8016" d="M340.092,138.113c-1.264,2.007-2.456,3.953-3.721,5.849a1.5,1.5,0,0,1-1.1.48c-7.37.027-14.74.007-22.11.041a4.775,4.775,0,0,0-2.114.5,3.013,3.013,0,0,0-1.392,3.457,3.158,3.158,0,0,0,3.232,2.37q10.05.016,20.1,0h1.045v6.349h-1.274q-9.892,0-19.783,0c-2.536,0-4.151,2.276-3.153,4.444a3.241,3.241,0,0,0,3.251,1.907c7.053-.014,14.105.012,21.158-.028a1.719,1.719,0,0,1,1.884,1.163c.821,1.769,1.888,3.424,2.9,5.208h-1.1q-12.483,0-24.967,0a3.182,3.182,0,1,0,.048,6.348q10.579-.012,21.158,0c3.985,0,7.969-.009,11.954.012a3.413,3.413,0,0,1,1.416.288A24.24,24.24,0,0,0,364.4,178.2c.134-.033.272-.051.513-.095.021.37.056.7.057,1.03q.006,6.243,0,12.485c0,2.387-1.258,3.631-3.667,3.631q-27.241,0-54.482,0c-2.395,0-3.638-1.252-3.638-3.659q0-40.789,0-81.577c0-2.405,1.243-3.649,3.643-3.652,3.032,0,6.063,0,9.264,0,0,.965-.006,1.9,0,2.836a3.21,3.21,0,0,0,3.466,3.51q14.493.011,28.987,0a3.223,3.223,0,0,0,3.519-3.565c0-.878,0-1.756,0-2.782h2.547c2.327,0,4.655-.012,6.982,0a3.163,3.163,0,0,1,3.371,3.28c.019,7.019.007,14.037.006,21.056,0,.137-.024.275-.037.425-1.55-.231-3.063-.5-4.587-.677a23.211,23.211,0,0,0-9.494,1.024,6.164,6.164,0,0,1-1.753.274q-18.037.023-36.073.015c-2.605,0-4.231,2.292-3.185,4.49a3.27,3.27,0,0,0,3.278,1.864q12.959-.023,25.919-.007Zm-6.019-19.048q-10.518,0-21.036-.006a3.223,3.223,0,0,0-3.233,1.93c-.98,2.168.647,4.42,3.188,4.422q15.592.014,31.185,0,5.549,0,11.1,0a3.115,3.115,0,0,0,3.092-1.973,3.163,3.163,0,0,0-3.153-4.37Q344.644,119.05,334.073,119.065Zm-.009,63.493q-10.518,0-21.036-.006a3.216,3.216,0,0,0-3.227,1.938c-.974,2.17.656,4.412,3.2,4.414q16.439.013,32.876,0,4.7,0,9.408,0a3.108,3.108,0,0,0,3.086-1.982,3.164,3.164,0,0,0-3.165-4.362Q344.635,182.544,334.064,182.558Z" transform="translate(-296.834 -93.231)" fill="#fff"/>
      <path id="Trazado_8017" data-name="Trazado 8017" d="M381.059,191.3a17.985,17.985,0,1,1,17.985-17.927A18.009,18.009,0,0,1,381.059,191.3Zm-3.03-16.389c-1.131-1.178-2.164-2.282-3.228-3.355-1.68-1.7-3.523-1.865-4.924-.483-1.372,1.352-1.209,3.3.413,4.93q2.579,2.582,5.16,5.161c1.778,1.774,3.474,1.788,5.232.036q3.485-3.471,6.956-6.955c1.546-1.546,3.12-3.064,4.627-4.647a3.155,3.155,0,0,0-1.5-5.334,3.212,3.212,0,0,0-3.155,1.038C384.478,168.456,381.338,171.6,378.029,174.912Z" transform="translate(-319.664 -111.896)" fill="#009a17"/>
      <path id="Trazado_8018" data-name="Trazado 8018" d="M357.458,102.143H334.31c0-1.941-.043-3.834.02-5.724.028-.852.712-1.007,1.457-1,2.853.014,5.706.006,8.559.006q5.811,0,11.622,0c1.315,0,1.6.293,1.606,1.616,0,1.62-.009,3.24-.018,4.86A.938.938,0,0,1,357.458,102.143Z" transform="translate(-308.693 -89.059)" fill="#fff"/>
      <path id="Trazado_8019" data-name="Trazado 8019" d="M436.419,224.974a10.376,10.376,0,0,1,2.108,1.252c2.935,2.848,5.815,5.753,8.692,8.661a3.178,3.178,0,1,1-4.448,4.522q-4.4-4.351-8.75-8.752a3.2,3.2,0,0,1-.713-3.694A3.69,3.69,0,0,1,436.419,224.974Z" transform="translate(-346.315 -138.441)" fill="#fff"/>
      <path id="Trazado_8020" data-name="Trazado 8020" d="M337.973,126.885q10.571,0,21.142,0a3.163,3.163,0,0,1,3.153,4.37,3.115,3.115,0,0,1-3.092,1.973q-5.549,0-11.1,0-15.593,0-31.185,0c-2.542,0-4.169-2.254-3.188-4.422a3.223,3.223,0,0,1,3.233-1.93Q327.455,126.9,337.973,126.885Z" transform="translate(-300.734 -101.051)"/>
      <path id="Trazado_8021" data-name="Trazado 8021" d="M337.964,229.486q10.571,0,21.142,0a3.164,3.164,0,0,1,3.165,4.362,3.108,3.108,0,0,1-3.086,1.982q-4.7.007-9.408,0-16.438,0-32.876,0c-2.545,0-4.175-2.243-3.2-4.414a3.216,3.216,0,0,1,3.227-1.938Q327.446,229.5,337.964,229.486Z" transform="translate(-300.734 -140.159)"/>
      <path id="Trazado_8022" data-name="Trazado 8022" d="M381.646,180.36c3.308-3.316,6.449-6.456,9.579-9.608a3.212,3.212,0,0,1,3.155-1.038,3.155,3.155,0,0,1,1.5,5.334c-1.507,1.582-3.081,3.1-4.627,4.647q-3.477,3.478-6.956,6.955c-1.758,1.753-3.454,1.738-5.232-.036q-2.583-2.578-5.16-5.161c-1.623-1.626-1.785-3.578-.413-4.93,1.4-1.381,3.245-1.212,4.924.483C379.482,178.079,380.515,179.182,381.646,180.36Z" transform="translate(-323.281 -117.344)" fill="#fff"/>
    </g>
  </g>
</svg>
