<svg xmlns="http://www.w3.org/2000/svg" width="124.431" height="118.425" viewBox="0 0 124.431 118.425">
  <g id="Grupo_13992" data-name="Grupo 13992" transform="translate(-65.569)">
    <circle id="bowls-of-beans-showing-the-process-of-coffee-produ-JEYEFGP" cx="51" cy="51" r="51" transform="translate(88 16.425)" fill="#99d7a2"/>
    <g id="Grupo_13845" data-name="Grupo 13845" transform="translate(65.569)">
      <path id="Trazado_8042" data-name="Trazado 8042" d="M535.86,85c2.186.345,4.393.6,6.557,1.048a42.293,42.293,0,0,1,32.38,33.123,41.87,41.87,0,0,1-3.718,27.134,1.228,1.228,0,0,0,.282,1.706q12,11.938,23.952,23.926c3.636,3.64,4.886,7.972,3.31,12.885a12.24,12.24,0,0,1-20.339,4.824c-5.2-5.124-10.33-10.317-15.491-15.48-2.967-2.967-5.946-5.924-8.892-8.913a1.05,1.05,0,0,0-1.447-.24,42.239,42.239,0,0,1-56.922-18.67,40.742,40.742,0,0,1-4.343-15.138,8.222,8.222,0,0,0-.187-.922v-5.925c.132-.9.276-1.792.393-2.689a42.173,42.173,0,0,1,32.523-35.577c2.259-.5,4.576-.735,6.867-1.092Zm-39.782,42.3a37.228,37.228,0,1,0,37.2-37.22A37.26,37.26,0,0,0,496.079,127.3Z" transform="translate(-491 -85)"/>
      <path id="Trazado_8043" data-name="Trazado 8043" d="M499.207,130.427A37.228,37.228,0,1,1,536.4,167.665,37.231,37.231,0,0,1,499.207,130.427Zm13.307-8.58a89.087,89.087,0,0,0,1.363,9.218c2.963,11.993,9.7,21.106,20.955,26.623a3.435,3.435,0,0,0,3.221,0,34.053,34.053,0,0,0,9.392-6.4c10.368-10.179,14.1-22.581,12.155-36.828-.337-2.469-1.085-2.937-3.615-2.9a45.4,45.4,0,0,1-6.012-.192c-4.873-.575-8.86-2.606-11.247-7.179-1.1-2.1-3.526-2.024-4.662.115a13,13,0,0,1-9.024,6.7,31.332,31.332,0,0,1-8.726.55c-1.776-.082-2.74.645-2.972,2.415C513.02,116.412,512.82,118.869,512.514,121.847Z" transform="translate(-494.128 -88.128)" fill="#fff"/>
      <path id="Trazado_8044" data-name="Trazado 8044" d="M520.71,127.67c.306-2.978.506-5.435.827-7.875.233-1.771,1.2-2.5,2.972-2.415a31.333,31.333,0,0,0,8.726-.55,13,13,0,0,0,9.024-6.7c1.136-2.139,3.565-2.216,4.662-.115,2.387,4.573,6.375,6.6,11.247,7.179a45.4,45.4,0,0,0,6.012.192c2.529-.039,3.278.429,3.615,2.9,1.944,14.248-1.787,26.649-12.155,36.828a34.053,34.053,0,0,1-9.392,6.4,3.435,3.435,0,0,1-3.221,0c-11.259-5.517-17.992-14.631-20.955-26.623A89.12,89.12,0,0,1,520.71,127.67Zm22.4,11.257c-1.858-1.657-3.632-3.258-5.426-4.835a2.583,2.583,0,0,0-3.768,0,2.509,2.509,0,0,0,.343,3.737q3.638,3.3,7.328,6.541a2.5,2.5,0,0,0,3.951-.321q4.918-6.209,9.783-12.459A2.541,2.541,0,0,0,555,127.84a2.583,2.583,0,0,0-3.707.661c-.884,1.1-1.739,2.215-2.608,3.323C546.841,134.172,545,136.519,543.105,138.927Z" transform="translate(-502.324 -93.951)" fill="#009a17"/>
      <path id="Trazado_8045" data-name="Trazado 8045" d="M550.815,150.526c1.891-2.408,3.736-4.755,5.579-7.1.87-1.108,1.725-2.226,2.608-3.323a2.583,2.583,0,0,1,3.707-.661,2.541,2.541,0,0,1,.316,3.745q-4.867,6.249-9.783,12.459a2.5,2.5,0,0,1-3.951.321q-3.689-3.242-7.328-6.541a2.509,2.509,0,0,1-.343-3.737,2.583,2.583,0,0,1,3.768,0C547.183,147.269,548.957,148.869,550.815,150.526Z" transform="translate(-510.034 -105.55)" fill="#fff"/>
    </g>
  </g>
</svg>
