<svg xmlns="http://www.w3.org/2000/svg" width="118.742" height="114.425" viewBox="0 0 118.742 114.425">
  <g id="Grupo_13994" data-name="Grupo 13994" transform="translate(-71.362)">
    <circle id="bowls-of-beans-showing-the-process-of-coffee-produ-JEYEFGP" cx="51" cy="51" r="51" transform="translate(88.104 12.425)" fill="#99d7a2"/>
    <g id="Grupo_13843" data-name="Grupo 13843" transform="translate(71.362)">
      <path id="Trazado_8033" data-name="Trazado 8033" d="M777.987,85a27.629,27.629,0,0,1,2.381,2.007q4.058,4.242,8.027,8.568a3.17,3.17,0,0,1-1.476,5.408,3.111,3.111,0,0,1-3.142-1.056c-1.249-1.33-2.491-2.667-3.9-4.175a65.211,65.211,0,0,1-9.978,27.684,24.069,24.069,0,0,1,5.766,12.525h19.991a7.974,7.974,0,0,0-.5-.662c-1.287-1.355-2.592-2.693-3.869-4.057a3.169,3.169,0,1,1,4.572-4.37q4.742,4.9,9.441,9.852a3.352,3.352,0,0,1-.03,4.917q-4.663,4.909-9.365,9.778a3.2,3.2,0,0,1-4.7.27c-1.321-1.28-1.254-3.2.173-4.7,1.406-1.483,2.821-2.957,4.344-4.552H775.664A24.035,24.035,0,0,1,769.9,154.9a64.565,64.565,0,0,1,9.975,27.69l3.859-4.133a3.178,3.178,0,1,1,4.705,4.258c-2.108,2.324-4.276,4.594-6.417,6.888-.795.85-1.583,1.706-2.387,2.547a3.2,3.2,0,0,1-4.855.16q-4.9-4.67-9.772-9.371a3.186,3.186,0,1,1,4.4-4.571c1.255,1.18,2.488,2.383,3.842,3.521a55.823,55.823,0,0,0-8.171-22.727,24.053,24.053,0,0,1-25.71.035c-3.279,3.779-8.231,17.277-8.317,22.812.295-.243.53-.415.74-.614,1.149-1.095,2.259-2.232,3.443-3.286a3.122,3.122,0,0,1,4.393.11,3.082,3.082,0,0,1,.021,4.391q-5.129,5.042-10.382,9.957a3.035,3.035,0,0,1-4.305-.175q-4.627-4.869-9.17-9.817a3.1,3.1,0,0,1,.179-4.465,3.156,3.156,0,0,1,4.472.18c.674.671,1.3,1.388,1.954,2.082.624.666,1.253,1.328,2.03,2.152.223-1.342.412-2.526.618-3.706a64.314,64.314,0,0,1,8.885-23.123c.195-.313.342-.949.173-1.152a24.294,24.294,0,0,1-5.419-12.144H708.675c.243.294.416.532.618.744,1.311,1.381,2.655,2.73,3.935,4.139a3.153,3.153,0,0,1-4.542,4.372q-4.943-5.078-9.8-10.236a8.262,8.262,0,0,1-.882-1.4v-1.693a30.321,30.321,0,0,1,1.9-2.474q4.271-4.545,8.622-9.015a3.173,3.173,0,1,1,4.506,4.453c-1.448,1.508-2.886,3.026-4.447,4.665h20.041c1.568-6.032,1.568-6.032,5.771-12.591a65.05,65.05,0,0,1-9.934-27.6c-1.415,1.512-2.657,2.849-3.91,4.175a3.1,3.1,0,0,1-3.144,1.042,3.167,3.167,0,0,1-1.456-5.409q3.98-4.31,8.025-8.561A28.232,28.232,0,0,1,726.355,85h1.693c.744.569,1.542,1.082,2.224,1.718,2.062,1.923,4.079,3.894,6.114,5.847,1.043,1,2.11,1.976,3.125,3.005a3.164,3.164,0,1,1-4.356,4.588c-1.155-1.034-2.242-2.143-3.365-3.213-.21-.2-.446-.373-.851-.707a58.2,58.2,0,0,0,8.336,22.947c8.626-5.019,17.168-5.037,25.8,0a56.047,56.047,0,0,0,8.186-22.744c-1.373,1.157-2.638,2.372-3.906,3.585a3.184,3.184,0,0,1-3.085.953,3.014,3.014,0,0,1-2.318-2.225,3.089,3.089,0,0,1,.96-3.261c3.048-2.932,6.091-5.87,9.166-8.774A27.462,27.462,0,0,1,776.294,85Zm-25.779,36.793a17.377,17.377,0,1,0,17.31,17.388A17.365,17.365,0,0,0,752.208,121.793Z" transform="translate(-698 -85)"/>
      <path id="Trazado_8034" data-name="Trazado 8034" d="M774.889,144.455a17.378,17.378,0,1,1-17.384,17.313A17.369,17.369,0,0,1,774.889,144.455ZM773.014,161.4c-.757-.8-1.4-1.55-2.113-2.233a3.165,3.165,0,1,0-4.5,4.452q2.128,2.2,4.326,4.337a3.1,3.1,0,0,0,4.688.042c2.665-2.612,5.281-5.274,7.911-7.922a3.052,3.052,0,0,0,.923-2.592,3.157,3.157,0,0,0-5.4-1.878C776.942,157.477,775.058,159.37,773.014,161.4Z" transform="translate(-720.681 -107.662)" fill="#009a17"/>
      <path id="Trazado_8035" data-name="Trazado 8035" d="M777.887,167.67c2.045-2.033,3.928-3.926,5.837-5.794a3.165,3.165,0,1,1,4.48,4.47c-2.63,2.648-5.246,5.31-7.911,7.922a3.1,3.1,0,0,1-4.688-.042q-2.2-2.133-4.326-4.337a3.165,3.165,0,1,1,4.5-4.452C776.482,166.119,777.129,166.865,777.887,167.67Z" transform="translate(-725.554 -113.929)" fill="#fff"/>
    </g>
  </g>
</svg>
