<svg xmlns="http://www.w3.org/2000/svg" width="80.168" height="80.159" viewBox="0 0 80.168 80.159">
  <g id="Grupo_13782" data-name="Grupo 13782" transform="translate(0)">
    <path id="Trazado_7877" data-name="Trazado 7877" d="M-648.8,834.576a50.2,50.2,0,0,1,6.758,1.2c.653.179,1.314.341,1.949.572a2.049,2.049,0,0,1,1.361,2.548,2.026,2.026,0,0,1-2.59,1.394,37.322,37.322,0,0,0-11.563-1.607,35.3,35.3,0,0,0-21.284,7.565,35.25,35.25,0,0,0-13.5,23.044,35.891,35.891,0,0,0,18.243,36.859,35.2,35.2,0,0,0,19.647,4.385,35.894,35.894,0,0,0,32.956-28.825,35.271,35.271,0,0,0-.725-17.089c-.072-.25-.145-.5-.206-.754a2.05,2.05,0,0,1,1.417-2.581,2.033,2.033,0,0,1,2.542,1.37,29.169,29.169,0,0,1,1.157,4.621c2.016,11.812-.5,22.574-7.848,32.04a38.321,38.321,0,0,1-25.4,14.909c-13.832,2.035-25.738-2.1-35.432-12.155a38.759,38.759,0,0,1-10.564-22.309c-.083-.618-.17-1.235-.255-1.852v-6.571c.207-1.414.322-2.849.635-4.239q5.459-24.245,29.305-31.305a42.812,42.812,0,0,1,6.827-1.223Z" transform="translate(692.134 -834.576)" fill="#009a17"/>
    <path id="Trazado_7878" data-name="Trazado 7878" d="M-586.746,914.616a23.693,23.693,0,0,0-23.362,19.778,23.879,23.879,0,0,0,18.591,27.328,23.894,23.894,0,0,0,28.4-19.072,25.869,25.869,0,0,0,.291-5.84,2.13,2.13,0,0,1,.858-1.985,1.943,1.943,0,0,1,2.071-.2,2.134,2.134,0,0,1,1.235,1.936,26.349,26.349,0,0,1-3.321,15.2,27.47,27.47,0,0,1-19.057,14.081,28.028,28.028,0,0,1-29.9-13.6,27.6,27.6,0,0,1-3.637-15.3,28.011,28.011,0,0,1,23.123-26.15,22.4,22.4,0,0,1,6.686-.324,2.216,2.216,0,0,1,2.032,2.347,1.959,1.959,0,0,1-2.217,1.809C-585.547,914.613-586.147,914.616-586.746,914.616Z" transform="translate(626.767 -898.458)" fill="#009a17"/>
    <path id="Trazado_7879" data-name="Trazado 7879" d="M-435.141,876.987c0-1.042.009-2.085,0-3.127a2.434,2.434,0,0,1,.746-1.825q5.861-5.858,11.72-11.718a2.036,2.036,0,0,1,2.345-.582,2.118,2.118,0,0,1,1.355,2.1c.029,1.615.034,3.232,0,4.846-.013.651.219.868.862.855,1.615-.031,3.231-.027,4.846,0a2.114,2.114,0,0,1,2.093,1.361,2.051,2.051,0,0,1-.59,2.344l-.22.222q-5.638,5.639-11.27,11.283a2.973,2.973,0,0,1-2.291.961c-1.954-.034-3.909.008-5.863-.021a1.747,1.747,0,0,0-1.371.578q-6.2,6.236-12.43,12.445a2.608,2.608,0,0,1-1.42.908,2.055,2.055,0,0,1-2.237-1.069,2.082,2.082,0,0,1,.45-2.5q3.523-3.552,7.071-7.081c1.9-1.9,3.789-3.8,5.7-5.688a1.553,1.553,0,0,0,.512-1.24C-435.162,879.02-435.142,878-435.141,876.987ZM-423.128,867l-.281-.043q-3.676,3.666-7.353,7.331a.933.933,0,0,0-.221.724c0,1.277.021,2.554-.009,3.83-.013.567.231.714.749.7q1.836-.036,3.673,0a1.406,1.406,0,0,0,1.1-.471c2.239-2.256,4.492-4.5,6.735-6.75.13-.131.372-.228.26-.521-.9-.042-1.813-.044-2.714-.135a1.919,1.919,0,0,1-1.923-1.969C-423.184,868.808-423.128,867.9-423.128,867Z" transform="translate(487.203 -855.654)" fill="#009a17"/>
    <path id="Trazado_7880" data-name="Trazado 7880" d="M-522.106,1014.831a11.8,11.8,0,0,0,11.862-11.565,2.152,2.152,0,0,1,2.156-2.364c1.208.03,1.986.986,2.006,2.415a14.115,14.115,0,0,1-.354,3.1,16.135,16.135,0,0,1-14.727,12.579,16.038,16.038,0,0,1-16.874-14.006,16.019,16.019,0,0,1,13.564-17.882,13.177,13.177,0,0,1,2.258-.153,2.1,2.1,0,0,1,2.181,2,2.071,2.071,0,0,1-2.054,2.132,15.4,15.4,0,0,0-3.239.461,11.93,11.93,0,0,0-8.64,12.442,12.046,12.046,0,0,0,9.607,10.661A11.881,11.881,0,0,0-522.106,1014.831Z" transform="translate(562.303 -963.064)" fill="#009a17"/>
  </g>
</svg>
