<svg xmlns="http://www.w3.org/2000/svg" width="124.132" height="102" viewBox="0 0 124.132 102">
  <g id="Grupo_13993" data-name="Grupo 13993" transform="translate(-75.155)">
    <circle id="bowls-of-beans-showing-the-process-of-coffee-produ-JEYEFGP" cx="51" cy="51" r="51" transform="translate(97.287)" fill="#99d7a2"/>
    <g id="Grupo_13842" data-name="Grupo 13842" transform="translate(75.155)">
      <path id="Trazado_8023" data-name="Trazado 8023" d="M1057.544,152.472a3.7,3.7,0,0,1-2.35,1.92c-3.01,1.042-6,2.138-9,3.21-2.412.861-3.216.507-4.228-1.849-.079-.183-.179-.357-.311-.618l-6.272,3.338c2.024,6.652-2.474,11.065-7.421,11.354a8.508,8.508,0,0,1-2.875,6,8.227,8.227,0,0,1-6.479,1.882,8.211,8.211,0,0,1-11.046,6.331c-2.406,6.231-9.645,7.627-14.184,2.87-4.736,2.724-10.9.8-12.509-5.489-5.255.389-8.906-2.816-9.461-7.933q-7.089-.828-7.971-8c-.625-.119-1.262-.191-1.87-.363a7.951,7.951,0,0,1-5.918-6.242,3.143,3.143,0,0,0-.95-1.559c-1.5-1.284-3.081-2.474-4.776-3.814-.4.971-.757,1.847-1.129,2.716-.71,1.663-1.8,2.175-3.492,1.577q-5.019-1.774-10.016-3.61a2.463,2.463,0,0,1-1.808-3.11q3.825-23.234,7.655-46.469c.374-2.269,1.949-3.087,3.951-2.024q9.248,4.91,18.468,9.874c1.668.9,2.03,1.956,1.346,3.719-.32.825-.656,1.643-1.106,2.769,1.5.357,2.9.811,4.334,1.006a14.605,14.605,0,0,0,6.919-.766,25.9,25.9,0,0,1,19.814.72,1.863,1.863,0,0,0,1.336-.051,25.749,25.749,0,0,1,19.359-.786,15.979,15.979,0,0,0,9.754.4c.571-.159,1.123-.389,1.787-.623-.4-1.04-.778-1.965-1.123-2.9a2.419,2.419,0,0,1,1.208-3.371q9.383-5.044,18.791-10.04c1.865-.988,3.48-.149,3.826,1.951q3.4,20.667,6.8,41.335c.274,1.658.632,3.3.952,4.953ZM997.019,172.2c1.41-1.812,2.775-1.9,4.428-.252,2.176,2.165,4.316,4.369,6.534,6.491a4.728,4.728,0,0,0,2.041,1.174,3.014,3.014,0,0,0,3.425-1.679,3.219,3.219,0,0,0-.734-3.877c-2.838-2.876-5.707-5.72-8.562-8.578-.485-.486-.992-.954-1.44-1.472a2.355,2.355,0,0,1,.071-3.375,2.433,2.433,0,0,1,3.3-.05c.309.257.582.559.868.845q5.23,5.225,10.457,10.453a3.2,3.2,0,0,0,3.448.861,3.051,3.051,0,0,0,2.158-2.677,3.6,3.6,0,0,0-1.338-3.094q-6.312-6.283-12.6-12.593c-.913-.914-1.858-1.8-2.718-2.764a2.313,2.313,0,0,1,.074-3.279,2.383,2.383,0,0,1,3.29-.131,10.389,10.389,0,0,1,.785.756q7.157,7.155,14.313,14.311a11.044,11.044,0,0,0,.967.915,3.227,3.227,0,0,0,5.245-2.135,3.622,3.622,0,0,0-1.342-3.1q-9.48-9.459-18.933-18.945a5.882,5.882,0,0,0-6.839-1.507q-6.218,2.363-12.495,4.574a9.084,9.084,0,0,1-7.414-16.559c1.583-.889,3.177-1.759,4.762-2.646.3-.165.569-.368.941-.611a20.477,20.477,0,0,0-13,.487,18.291,18.291,0,0,1-7.853,1.1c-2.3-.247-4.563-.784-6.962-1.214l-10.109,25.151,4.831,3.823c1.444-1.352,2.787-2.632,4.154-3.884a8.057,8.057,0,0,1,12.657,2.284c.179.35.361.7.538,1.042a8.277,8.277,0,0,1,11.748,7.219,8.325,8.325,0,0,1,6.451,3.477,8.449,8.449,0,0,1,1.145,7.2Zm42.858-21.627-10.934-27.184c-6.216,2.039-9.457,2.025-15.505.075-4.4-1.418-8.951-1.741-13.171.124-5.035,2.225-9.835,5-14.654,7.687A3.634,3.634,0,0,0,984,135.406c.554,2.756,3.125,4.061,5.99,3.033q6.2-2.229,12.384-4.518a10.325,10.325,0,0,1,11.75,2.62q6.371,6.395,12.763,12.768c1.768,1.769,3.532,3.542,5.33,5.346Zm-94.834,1.98,14.723-36.619-14.338-7.671c-2.314,14.111-4.6,28.025-6.88,41.956Zm86.135-36.614,14.729,36.625,6.49-2.36c-2.3-14.018-4.579-27.9-6.882-41.929Zm-50.41,43.956c-.033-1.858-.66-2.884-1.921-3.449a3.048,3.048,0,0,0-3.578.662c-2,1.942-3.981,3.906-5.914,5.914a3.178,3.178,0,0,0-.057,4.576,3.253,3.253,0,0,0,4.671-.063c1.973-1.912,3.933-3.841,5.813-5.843A6.775,6.775,0,0,0,980.768,159.893Zm8.216,7.685a3.76,3.76,0,0,0-2.1-3.113,3.081,3.081,0,0,0-3.583.643q-2.961,2.866-5.836,5.82a3.2,3.2,0,0,0-.081,4.752,3.275,3.275,0,0,0,4.672-.2c1.907-1.865,3.816-3.729,5.639-5.674A11.114,11.114,0,0,0,988.984,167.578Zm-25.108-7.036a3.325,3.325,0,0,0,1.357-.494,31.881,31.881,0,0,0,3.735-3.742,3.028,3.028,0,0,0-.584-4.04,3.144,3.144,0,0,0-4.1-.129,30.835,30.835,0,0,0-3.235,3.243,2.894,2.894,0,0,0-.329,3.39A3.268,3.268,0,0,0,963.876,160.541Zm30.391,16.983a2.971,2.971,0,0,0-1.656-2.405,2.809,2.809,0,0,0-3.2.09,20.162,20.162,0,0,0-3.148,3.135,2.811,2.811,0,0,0-.079,3.3,3.068,3.068,0,0,0,2.786,1.613C990.988,183.271,994.3,179.888,994.267,177.524Zm5.112-.872-.313.085a8.278,8.278,0,0,1-2.029,6.679c1.42,1.706,3.348,1.945,4.8.658a3.193,3.193,0,0,0,.128-4.729C1001.13,178.425,1000.244,177.549,999.379,176.652Z" transform="translate(-933.413 -102.124)"/>
      <path id="Trazado_8024" data-name="Trazado 8024" d="M1008.337,184.7l-3.709-2.249a8.449,8.449,0,0,0-1.145-7.2,8.325,8.325,0,0,0-6.451-3.477,8.277,8.277,0,0,0-11.748-7.219c-.177-.343-.358-.692-.538-1.042a8.057,8.057,0,0,0-12.657-2.284c-1.368,1.253-2.711,2.533-4.154,3.884l-4.831-3.823,10.109-25.151c2.4.429,4.664.967,6.962,1.214a18.291,18.291,0,0,0,7.853-1.1,20.477,20.477,0,0,1,13-.487c-.372.243-.646.446-.941.611-1.585.887-3.179,1.756-4.762,2.646a9.084,9.084,0,0,0,7.414,16.559q6.272-2.219,12.495-4.574a5.882,5.882,0,0,1,6.839,1.507q9.435,9.5,18.933,18.945a3.622,3.622,0,0,1,1.342,3.1,3.227,3.227,0,0,1-5.245,2.135,11.044,11.044,0,0,1-.967-.915q-7.158-7.154-14.313-14.311a10.389,10.389,0,0,0-.785-.756,2.383,2.383,0,0,0-3.29.131,2.313,2.313,0,0,0-.074,3.279c.86.963,1.8,1.85,2.718,2.764q6.3,6.3,12.6,12.593a3.6,3.6,0,0,1,1.338,3.094,3.051,3.051,0,0,1-2.158,2.677,3.2,3.2,0,0,1-3.448-.861q-5.224-5.231-10.457-10.453c-.286-.286-.559-.588-.868-.845a2.433,2.433,0,0,0-3.3.05,2.355,2.355,0,0,0-.071,3.375c.448.519.955.986,1.44,1.472,2.855,2.858,5.724,5.7,8.562,8.578a3.219,3.219,0,0,1,.734,3.877,3.014,3.014,0,0,1-3.425,1.679,4.728,4.728,0,0,1-2.041-1.174c-2.218-2.122-4.358-4.326-6.534-6.491C1011.112,182.8,1009.747,182.886,1008.337,184.7Z" transform="translate(-944.73 -114.624)" fill="#fff"/>
      <path id="Trazado_8025" data-name="Trazado 8025" d="M1070.97,162.993l-7.661,4.084c-1.8-1.8-3.562-3.577-5.33-5.346q-6.381-6.385-12.763-12.768a10.325,10.325,0,0,0-11.75-2.62q-6.181,2.287-12.384,4.518c-2.865,1.029-5.435-.277-5.99-3.033a3.634,3.634,0,0,1,1.615-4.133c4.818-2.687,9.619-5.461,14.654-7.687,4.22-1.865,8.773-1.542,13.171-.124,6.048,1.95,9.289,1.964,15.505-.076Z" transform="translate(-964.505 -114.546)" fill="#fff"/>
      <path id="Trazado_8026" data-name="Trazado 8026" d="M948.206,156.332,941.711,154c2.285-13.931,4.566-27.845,6.88-41.956l14.338,7.671Z" transform="translate(-936.576 -105.905)" fill="#fff"/>
      <path id="Trazado_8027" data-name="Trazado 8027" d="M1091.394,119.725l14.337-7.663c2.3,14.032,4.581,27.911,6.882,41.929l-6.49,2.36Z" transform="translate(-993.629 -105.912)" fill="#009a17"/>
      <path id="Trazado_8028" data-name="Trazado 8028" d="M1002.289,193.158a6.775,6.775,0,0,1-.986,1.8c-1.88,2-3.84,3.931-5.813,5.843a3.253,3.253,0,0,1-4.671.063,3.178,3.178,0,0,1,.057-4.576c1.933-2.009,3.914-3.972,5.914-5.914a3.048,3.048,0,0,1,3.578-.662C1001.629,190.274,1002.256,191.3,1002.289,193.158Z" transform="translate(-954.934 -135.389)" fill="#fff"/>
      <path id="Trazado_8029" data-name="Trazado 8029" d="M1015.442,205.785a11.113,11.113,0,0,1-1.289,2.227c-1.823,1.945-3.732,3.81-5.639,5.674a3.275,3.275,0,0,1-4.672.2,3.2,3.2,0,0,1,.081-4.752q2.871-2.956,5.836-5.82a3.081,3.081,0,0,1,3.583-.643A3.76,3.76,0,0,1,1015.442,205.785Z" transform="translate(-959.871 -140.332)" fill="#fff"/>
      <path id="Trazado_8030" data-name="Trazado 8030" d="M980.45,190.914a3.268,3.268,0,0,1-3.157-1.772,2.894,2.894,0,0,1,.329-3.39,30.84,30.84,0,0,1,3.235-3.243,3.144,3.144,0,0,1,4.1.129,3.028,3.028,0,0,1,.584,4.04,31.874,31.874,0,0,1-3.735,3.742A3.324,3.324,0,0,1,980.45,190.914Z" transform="translate(-949.987 -132.497)" fill="#fff"/>
      <path id="Trazado_8031" data-name="Trazado 8031" d="M1026.466,222.2c.036,2.363-3.279,5.747-5.3,5.73a3.068,3.068,0,0,1-2.786-1.613,2.811,2.811,0,0,1,.079-3.3,20.162,20.162,0,0,1,3.148-3.135,2.809,2.809,0,0,1,3.2-.09A2.971,2.971,0,0,1,1026.466,222.2Z" transform="translate(-965.612 -146.803)" fill="#fff"/>
      <path id="Trazado_8032" data-name="Trazado 8032" d="M1038.568,222.556c.865.9,1.751,1.773,2.589,2.694a3.193,3.193,0,0,1-.128,4.729c-1.454,1.287-3.382,1.048-4.8-.658a8.278,8.278,0,0,0,2.029-6.679Z" transform="translate(-972.601 -148.028)" fill="#fff"/>
    </g>
  </g>
</svg>
