<svg id="Grupo_13833" data-name="Grupo 13833" xmlns="http://www.w3.org/2000/svg" width="271.193" height="55.396" viewBox="0 0 271.193 55.396">
  <g id="Grupo_13821" data-name="Grupo 13821" transform="translate(0 0.379)">
    <path id="Icon_awesome-facebook" data-name="Icon awesome-facebook" d="M55.914,28.238a27.676,27.676,0,1,0-32,27.341V36.238h-7.03v-8h7.03v-6.1c0-6.936,4.129-10.767,10.453-10.767a42.592,42.592,0,0,1,6.2.54v6.807H37.072c-3.437,0-4.51,2.134-4.51,4.322v5.195h7.675l-1.228,8H32.562V55.579A27.686,27.686,0,0,0,55.914,28.238Z" transform="translate(-0.563 -0.563)" fill="#fff"/>
  </g>
  <g id="Grupo_13822" data-name="Grupo 13822" transform="translate(216.33 0)">
    <path id="Sustracción_1" data-name="Sustracción 1" d="M27.431,54.863A27.432,27.432,0,0,1,8.035,8.035,27.431,27.431,0,1,1,46.828,46.829,27.253,27.253,0,0,1,27.431,54.863Zm6.576-27.142c3.624,0,3.624,3.435,3.624,5.944V44.593h6.955l.007-12.33c0-5.547-1.012-10.68-8.35-10.68a7.358,7.358,0,0,0-6.6,3.624h-.1V22.146H22.864V44.593h6.962V33.478C29.826,30.631,30.323,27.722,34.006,27.722ZM11.527,22.146V44.593H18.5V22.146Zm3.482-11.173a4.056,4.056,0,1,0,4.036,4.036A4.041,4.041,0,0,0,15.009,10.973Z" transform="translate(0 0)" fill="#fff"/>
  </g>
</svg>
