<svg id="Grupo_13832" data-name="Grupo 13832" xmlns="http://www.w3.org/2000/svg" width="55.2" height="55.2" viewBox="0 0 55.2 55.2">
  <ellipse id="Elipse_9" data-name="Elipse 9" cx="27.6" cy="27.6" rx="27.6" ry="27.6" transform="translate(0 0)" fill="#fff"/>
  <path id="icons8-instagram" d="M12.358,3C7.2,3,3,6.9,3,11.7V25.632c0,4.8,4.2,8.7,9.358,8.7H27.331c5.16,0,9.358-3.9,9.358-8.7V11.7c0-4.8-4.2-8.7-9.358-8.7Zm0,3.482H27.331A5.436,5.436,0,0,1,32.945,11.7V25.632a5.436,5.436,0,0,1-5.615,5.223H12.358a5.436,5.436,0,0,1-5.615-5.223V11.7A5.436,5.436,0,0,1,12.358,6.482ZM29.2,8.223a1.81,1.81,0,0,0-1.872,1.741,1.876,1.876,0,0,0,3.743,0A1.81,1.81,0,0,0,29.2,8.223ZM19.844,9.964c-5.16,0-9.358,3.9-9.358,8.7s4.2,8.7,9.358,8.7,9.358-3.9,9.358-8.7S25,9.964,19.844,9.964Zm0,3.482a5.436,5.436,0,0,1,5.615,5.223,5.436,5.436,0,0,1-5.615,5.223,5.436,5.436,0,0,1-5.615-5.223A5.436,5.436,0,0,1,19.844,13.445Z" transform="translate(7.982 10.558)"/>
</svg>
