<svg xmlns="http://www.w3.org/2000/svg" width="71.947" height="43.104" viewBox="0 0 71.947 43.104">
  <g id="Componente_43_1" data-name="Componente 43 – 1" transform="translate(0.5 0.514)">
    <path id="Trazado_8095" data-name="Trazado 8095" d="M60.006,74.074a31.788,31.788,0,0,1,.528-4.279,2.305,2.305,0,0,1,.157-1.153l.639-1.877,0-.016.008-.022c1.01-2.966,2.027-5.944,3.07-9-2.542-1.969-3.338-4.261-2.178-6.887a3.626,3.626,0,0,1,4.385-2.256,17.816,17.816,0,0,1,3.788,1.61,2.138,2.138,0,0,0,2.037.168,15.305,15.305,0,0,1,10.436-.626,7.006,7.006,0,0,0,6.008-.478c3.768-2,6.355-.373,6.807,3.875.009.083.086.158.154.278.3-.052.617-.1.93-.162,4.2-.833,8.382-1.818,12.613-2.457A18.48,18.48,0,0,1,119.5,51.881a2.421,2.421,0,0,1,.843.381,2.951,2.951,0,0,1,.929.606A29.785,29.785,0,0,1,124.98,55.9a3.635,3.635,0,0,1,1,1.13A24.667,24.667,0,0,1,130.456,76.3c-1.534,8.7-7.631,13.879-16.05,13.873-1.92,0-3.867-.229-5.1-1.928a1.866,1.866,0,0,0-1.716-.766c-2.849-.184-5.691-.471-8.539-.654a3.8,3.8,0,0,0-1.772.342c-2.126.986-4.157,2.2-6.337,3.04a3.705,3.705,0,0,1-4.959-3c-.049-.265-.063-.537-.084-.731a42.669,42.669,0,0,1-5.712-1.3c-1.487-.55-2.434-.11-3.647.634a58.942,58.942,0,0,1-8.1,4.389c-2.8,1.159-5.546-1.582-4.847-4.539.083-.352.215-.692.343-1.095-3.393-2.326-3.949-5.827-4.012-9.533A3.351,3.351,0,0,1,60.006,74.074ZM66.968,50.8c-1.568-.577-2.487-.152-2.946,1.254-.5,1.53.17,3.369,1.425,3.749a1.106,1.106,0,0,0,.918-.268c.544-.555.966-1.228,1.5-1.8.5-.532,1.074-.99,1.8-1.648C68.6,51.571,67.812,51.108,66.968,50.8Zm15.538,1c.246,4.824.441,9.468.744,14.106a3.334,3.334,0,0,0,2.112,2.712,21.834,21.834,0,0,1,2.767,1.544c4.012,2.8,6.224,8,2.254,13.475a5.973,5.973,0,0,0,4.429-4.1,19.83,19.83,0,0,0,.04-9.845,31.767,31.767,0,0,0-6.473-14.173A9.53,9.53,0,0,0,82.505,51.793Zm10.767-.152c-.547-1.137-1.5-1.388-3.088-.74-.755.307-1.466.722-2.181,1.081,1.053,1.231,1.966,2.393,3,3.437a1.455,1.455,0,0,0,1.35.163C93.546,54.945,93.938,53.027,93.272,51.641Zm7.426,2.893c-2.88.6-5.949.719-7.865,3.527.767,1.722,1.695,3.568,2.416,5.491.706,1.882,1.2,3.844,1.788,5.766C99.834,66.339,101.628,58.63,100.7,54.534Zm27.881,20.459a23.412,23.412,0,0,0-3.956-16.253,17.89,17.89,0,0,0-4.2-4.249h0a13.516,13.516,0,0,1-1.4-.731,18.438,18.438,0,0,0-4.014-1.109c.066.953.067,1.592.162,2.217a22.042,22.042,0,0,0,4.826,10.275c2.772,3.552,5.592,7.068,8.374,10.577A3.545,3.545,0,0,0,128.579,74.993ZM89.645,88.283c.253.157.8-.072,1.176-.215,5.734-2.16,10.191-5.69,12.405-11.615.253-.676.6-1.354,1.5-.994.865.347.806,1.088.428,1.739-1.265,2.179-2.571,4.333-3.887,6.482a14.124,14.124,0,0,1-1.218,1.4c2.98.122,5.569.24,8.16.314a1.491,1.491,0,0,0,.816-.4c1.343-1.056,2.668-2.133,4.124-3.3a15.055,15.055,0,0,1-1.308-1.2,8.769,8.769,0,0,1-.2-12.045c.254-.266.508-.638.823-.715a5.915,5.915,0,0,1,1.49,0c-.038.492.115,1.14-.141,1.453-3.782,4.617-2.77,9.433,2.61,12.183.123.063.288.094.362.194.3.4.852.88.783,1.224-.074.364-.707.739-1.166.875-1.143.341-2.363.442-3.48.842-.968.346-2.268.824-2.078,2.068.2,1.315,1.6,1.364,2.688,1.439,5.9.4,10.928-2.354,13.31-7.343a2.823,2.823,0,0,0,.122-2.066,22.036,22.036,0,0,0-2.279-4.237c-1.418-1.986-3.017-3.846-4.577-5.729-3.827-4.616-7.008-9.524-7.228-16.186a60.829,60.829,0,0,0-9.8,1.331c-.113,2.383-.075,4.554-.348,6.686a26.961,26.961,0,0,1-4.666,11.566,4.235,4.235,0,0,0-.542,1.895c-.137,1.42-.053,2.867-.26,4.274-.657,4.461-3.387,7.106-7.888,7.867a4.549,4.549,0,0,0-1.326.756A10.889,10.889,0,0,0,89.645,88.283ZM77.677,82.845a5.246,5.246,0,0,1,2.045-.02c1.3.281,2.545.8,3.846,1.057,1.321.26,2.692.711,3.936-.4A7.53,7.53,0,0,0,90.4,78.32a6.921,6.921,0,0,0-2.864-5.993A10.013,10.013,0,0,0,85.081,70.8c-2.824-1.181-4-3.312-4.082-6.289-.127-4.332-.386-8.661-.587-12.969-.194-.143-.228-.187-.269-.2-2.845-.536-3.084-.369-3.233,2.452Q76.6,59.6,76.341,65.407A5.881,5.881,0,0,1,72.806,70.6,15.035,15.035,0,0,0,68.9,73.368a6.7,6.7,0,0,0,1.57,10.478,1.82,1.82,0,0,0,1.161.276C73.651,83.731,75.653,83.233,77.677,82.845ZM66.009,87.623a2.262,2.262,0,0,0,1.907.571,33.7,33.7,0,0,0,4.1-1.687l-6.368-.859C65.749,86.329,65.63,87.2,66.009,87.623Zm-3.275-7.888A4.981,4.981,0,0,0,66.912,83.4a8.581,8.581,0,0,1-1.706-7.577,10.667,10.667,0,0,1,6.425-6.985,4.129,4.129,0,0,0,2.7-4.093c0-1.337.129-2.673.19-4.01.135-2.945.265-5.89.4-8.855-2.452.362-4.325,1.591-6.337,4.213A33.6,33.6,0,0,0,62.708,69.1a4.191,4.191,0,0,1-.3.962,25.974,25.974,0,0,0-.313,5.534A25.578,25.578,0,0,0,62.734,79.735Z" transform="translate(-59.923 -48.407)" stroke="#000" stroke-width="1"/>
    <path id="Trazado_8096" data-name="Trazado 8096" d="M226.483,133.7a31.867,31.867,0,0,1,4.262-.645c1.616.14,2.852.235,4.086.36a5.116,5.116,0,0,1,1.071.245c2.3.758,2.86,2.808,1.267,4.632-2.606,2.985-9.3,3-11.925.019C223.64,136.485,224.154,134.338,226.483,133.7Zm.384,3.3c1.714,1.933,6.956,1.933,8.671,0,.568-.64.592-1.209-.366-1.367-1.309-.216-2.637-.312-3.965-.46-1.335.148-2.664.243-3.972.459C226.285,135.786,226.3,136.352,226.867,137Z" transform="translate(-212.645 -109.617)" stroke="#000" stroke-width="1"/>
    <ellipse id="Elipse_50" data-name="Elipse 50" cx="1.433" cy="1.433" rx="1.433" ry="1.433" transform="translate(9.228 11.656)" stroke="#000" stroke-width="1"/>
    <ellipse id="Elipse_51" data-name="Elipse 51" cx="1.433" cy="1.433" rx="1.433" ry="1.433" transform="translate(25.257 11.656)" stroke="#000" stroke-width="1"/>
  </g>
</svg>
