<svg xmlns="http://www.w3.org/2000/svg" width="80.156" height="65.851" viewBox="0 0 80.156 65.851">
  <g id="Componente_45_1" data-name="Componente 45 – 1" transform="translate(0.49 0.496)">
    <path id="Trazado_8138" data-name="Trazado 8138" d="M-618.568-367.157c-.921,0-1.843.016-2.763,0-1.283-.028-1.77-.786-1.266-1.975.727-1.715,1.484-3.418,2.206-5.136a2.812,2.812,0,0,0,.227-1.033c.02-2.157.132-4.323-.031-6.467a33.588,33.588,0,0,0-.951-4.664.731.731,0,0,0-.343-.39,15.327,15.327,0,0,1-5.178-5.741c-2.191-3.634-4.286-7.326-6.474-10.963a42.022,42.022,0,0,0-5.659-7.44.957.957,0,0,0-1.005-.3c-1.807.342-3.623.641-5.436.951a4.862,4.862,0,0,1-.537.048c-2.024.116-3.017-.51-3.684-2.419a23.913,23.913,0,0,1-.6-2.345,1.983,1.983,0,0,1,.572-1.656q2.59-3.615,5.161-7.244a1.7,1.7,0,0,0,.329-.912,6.261,6.261,0,0,1,3.457-5.754,11.219,11.219,0,0,1,8.805-.912,20.424,20.424,0,0,1,8.842,5.215,30.888,30.888,0,0,1,2.5,2.643,17.635,17.635,0,0,0,9.494,5.8,35.264,35.264,0,0,0,14.182.4,44.941,44.941,0,0,1,8.973-.814,18.109,18.109,0,0,1,8.367,2.259,6.94,6.94,0,0,0,1.874.483,11.749,11.749,0,0,1,4.936,2.2c1.827,1.508,2.129,3.158.907,5.173-.439.724-1.039,1.348-1.53,2.044a1.453,1.453,0,0,0-.312.828c.3,4.84-.476,9.585-1.214,14.335a5.689,5.689,0,0,1-1.236,3.148c-.152.167-.08.6-.021.886.393,1.913.816,3.819,1.214,5.732a3.374,3.374,0,0,1,.075,1q-.583,5.9-1.2,11.8a1.174,1.174,0,0,1-1.274,1.207c-1.8.032-3.6.045-5.391,0-1.067-.029-1.476-.732-1.157-1.849.9-3.173,1.833-6.339,2.715-9.519a1.727,1.727,0,0,0-.1-1.131c-1.248-2.514-2.474-5.043-3.852-7.486a17.179,17.179,0,0,0-2.331-2.848c-.13-.145-.545-.128-.794-.059a42.636,42.636,0,0,1-10.3,1.564,27.574,27.574,0,0,1-10.6-1.5.913.913,0,0,0-1.111.263c-.726.7-1.538,1.307-2.277,1.993a1.5,1.5,0,0,0-.494.851c-.478,5.91-.925,11.823-1.379,17.735-.019.246-.034.494-.068.738a1.239,1.239,0,0,1-1.376,1.258c-.965.028-1.932.006-2.9.006Zm6.806-24.174-.514-.407a1.246,1.246,0,0,1-.406-1.757,1.181,1.181,0,0,1,1.787-.129,13.615,13.615,0,0,0,5.511,2.23,34.748,34.748,0,0,0,16.133-.838c1.963-.551,3.279-.24,4.419,1.357a9.016,9.016,0,0,0,1.2,1.269,4.011,4.011,0,0,0,5.208.681,2.288,2.288,0,0,0,1.3-1.834c.22-1.556.52-3.1.709-4.66a43.3,43.3,0,0,0,.5-10.2,11.2,11.2,0,0,0-3.435-7.4,11.987,11.987,0,0,0-6.879-2.776,32.043,32.043,0,0,0-9.114.506,40.659,40.659,0,0,1-14.474.08,20.57,20.57,0,0,1-10.942-5.41c-1.322-1.311-2.5-2.773-3.841-4.059a16.382,16.382,0,0,0-8.927-4.8,8.28,8.28,0,0,0-6.478,1.355,11.592,11.592,0,0,0-1.385,1.469l.152.176c.148-.018.3-.041.443-.053a10.727,10.727,0,0,1,2.531-.157,9.673,9.673,0,0,0,3.119-.1,32.707,32.707,0,0,1,3.284-.2c1.635-.079,1.841.754,1.761,1.949-.185,2.756-2.4,4.918-4.746,5.988a1.1,1.1,0,0,1-1.432-.549,1.179,1.179,0,0,1,.4-1.489c.2-.146.433-.242.626-.394a14.614,14.614,0,0,0,1.758-1.447,9.527,9.527,0,0,0,1-1.589l-.161-.163a10.99,10.99,0,0,0-1.527.119,12.511,12.511,0,0,1-4.651.21,3.393,3.393,0,0,0-3.458,1.621q-2.273,3.341-4.7,6.574a2.222,2.222,0,0,0-.405,2.277c.43,1.285.614,1.481,1.977,1.246,2.055-.355,4.095-.8,6.154-1.13a2.91,2.91,0,0,0,2.2-1.677c.118-.217.229-.438.353-.652.447-.778,1.083-1.035,1.716-.7a1.192,1.192,0,0,1,.337,1.811c-.586.971-1.248,1.9-1.922,2.907.072.089.217.287.38.468a46.674,46.674,0,0,1,5.476,7.494c2.013,3.4,3.972,6.832,6,10.223a16.15,16.15,0,0,0,3.5,4.409,5.161,5.161,0,0,0,4.318,1.232A10.249,10.249,0,0,0-611.762-391.331Zm-6.6,5.587a40.025,40.025,0,0,1,.528,4.006c.083,2.4.013,4.8.026,7.2a.669.669,0,0,0,.254.518,10.769,10.769,0,0,0,1.3.438l.965-12.539Zm40.1-.6-3.28.529c.1.213.179.419.279.615.776,1.519,1.505,3.065,2.354,4.542a3.007,3.007,0,0,1,.251,2.684c-.415,1.2-.719,2.441-1.092,3.737l2.04.593c.149-1.419.291-2.731.423-4.044a12.113,12.113,0,0,0,.229-2.875C-577.346-382.509-577.85-384.423-578.264-386.343Zm-41.545,16.669c.111.084.145.132.18.132.672.013,1.344.025,2.016.028,1.059,0,1.034,0,1.134-1.025.046-.472-.093-.7-.553-.812-.477-.115-.933-.32-1.41-.438-.151-.038-.443.025-.494.128C-619.257-371-619.529-370.324-619.808-369.674Zm38.7.162h1.744c1.38,0,1.42-.036,1.381-1.414,0-.128-.09-.336-.184-.366-.734-.237-1.478-.44-2.253-.663Zm7.041-39.33c1.106-1.25,1.057-1.872-.264-2.847-.385-.284-.819-.5-1.344-.819Z" transform="translate(650.099 432)" stroke="#000" stroke-width="1"/>
    <path id="Trazado_8139" data-name="Trazado 8139" d="M-599.87-378.753a1.15,1.15,0,0,1-1.182-1.121,1.187,1.187,0,0,1,1.125-1.189,1.179,1.179,0,0,1,1.175,1.135A1.136,1.136,0,0,1-599.87-378.753Z" transform="translate(610.555 390.933)" stroke="#000" stroke-width="1"/>
  </g>
</svg>
