<svg xmlns="http://www.w3.org/2000/svg" width="78.662" height="68.667" viewBox="0 0 78.662 68.667">
  <g id="Componente_40_1" data-name="Componente 40 – 1" transform="translate(0.375 0.375)">
    <path id="Trazado_8091" data-name="Trazado 8091" d="M-243.572,57.375a4.74,4.74,0,0,1,2.872.829c.419.262.822.547,1.233.823l1.268-1.877c-.483-.419-.955-.8-1.4-1.216a5.583,5.583,0,0,1-.734-7.341c.652-.9,1.251-.987,2.1-.283,1.482,1.232,2.942,2.492,4.442,3.7a1.945,1.945,0,0,0,1.078.4c1.292.048,2.588.051,3.88,0a2.077,2.077,0,0,0,1.145-.423c1.5-1.207,2.958-2.473,4.444-3.7.824-.68,1.411-.589,2.048.267a5.579,5.579,0,0,1-.73,7.4c-.443.41-.909.793-1.377,1.2l1.223,1.784a23.049,23.049,0,0,1,2.688-1.36,3.487,3.487,0,0,1,4.4,1.549,1.623,1.623,0,0,0,1.727,1.063c9.194.44,18.346.39,27.363-1.889a13.283,13.283,0,0,1,12.32,2.541.644.644,0,0,0,.206.066,9.168,9.168,0,0,0,.659-4.261,5.689,5.689,0,0,0-5.976-5.493,23.722,23.722,0,0,0-4.981.876l-.025.007a2.069,2.069,0,0,1-.46.14,14.127,14.127,0,0,1-9.278-1.468,1.009,1.009,0,0,0-1.158.043,4.1,4.1,0,0,1-5.768-1.55,32.373,32.373,0,0,1-1.5-3.238,1.887,1.887,0,0,1,1.488-2.633c1.154-.156,2.318-.234,3.232-.322,3-.045,5.005,2.264,4.5,4.95-.094.5.091.668.474.856a12.245,12.245,0,0,0,7.611,1.127c.022,0,.041,0,.062-.006l0,0a29.937,29.937,0,0,1,6.263-1.066h.016a7.169,7.169,0,0,1,6.123,3.169c2.3,3.211,2.1,6.65.66,10.124a1.091,1.091,0,0,0,.094,1.222,12.754,12.754,0,0,1,2.122,5.474A20.378,20.378,0,0,1-169.6,74.9c-.131.926-.268,1.851-.431,2.771l-.893,5.734c-.1.855-.24,1.707-.4,2.554a2.715,2.715,0,0,0,.607,2.4,4,4,0,0,1,.984,2,15.515,15.515,0,0,1-.2,3.755c-.558,3.391-1.583,6.721-1.019,10.234a1.672,1.672,0,0,1-1.1,1.835.9.9,0,0,0-.648,1.087,5.376,5.376,0,0,1-.022.988,2.857,2.857,0,0,1-2.694,2.632c-1.927.055-3.856.042-5.784.009a1.093,1.093,0,0,1-1-1.661c.41-.842.9-1.646,1.341-2.472a8.093,8.093,0,0,0,1.217-3c.193-1.858.836-3.732.157-5.564a22.232,22.232,0,0,0-2.022-3.97,12.936,12.936,0,0,1-1.936-4.908c-.13-.842-.356-1.669-.545-2.534a18.749,18.749,0,0,0-7.693,2.365,12.517,12.517,0,0,1-8.972,1.808c-2.22-.371-4.4-.989-6.6-1.455-.975-.206-1.972-.306-2.9-.447-.573,2-1.025,3.847-1.632,5.642a15.64,15.64,0,0,0-.449,9.128,1.856,1.856,0,0,1-.738,2.157,1.127,1.127,0,0,0-.545,1.2c.018.227.006.457,0,.685a2.921,2.921,0,0,1-3.016,3.035c-1.852.021-3.7.015-5.556,0-1.206-.008-1.7-.823-1.142-1.879.522-.985,1.1-1.94,1.608-2.933a9.194,9.194,0,0,0,.573-7.631,8.463,8.463,0,0,1-.484-3.809c.08-.816.015-1.646.015-2.468-.553,0-1.034.014-1.515,0a7.188,7.188,0,0,1-2.412-.5l0,0-.112-.045c-.06-.025-.119-.052-.178-.079l-.129-.06A7.745,7.745,0,0,1-227,90.846a1.765,1.765,0,0,1-.163-.128,7.628,7.628,0,0,1-3.161-5.014,5.522,5.522,0,0,1-.11-.6c-.22-1.394-.438-2.789-.651-4.143a.943.943,0,0,0-.216-.081c-.938-.009-1.876,0-2.815-.025a2.389,2.389,0,0,1-2.523-1.8,9.159,9.159,0,0,1,.406-5.52,1.353,1.353,0,0,0,.049-.962c-.935-2.408-1.911-4.8-2.875-7.2-.24-.6-.475-1.195-.723-1.819-.336.221-.606.409-.886.58a4.888,4.888,0,0,1-2.949.826,3.585,3.585,0,0,1-3.411-2.934V60.36A3.592,3.592,0,0,1-243.572,57.375Zm48.726-10.487a1.9,1.9,0,0,0-2.068-1.593c-.756.037-1.509.125-2.263.2a2.174,2.174,0,0,0-.357.112c.381.834.706,1.6,1.077,2.343a1.847,1.847,0,0,0,2.334,1.016A1.893,1.893,0,0,0-194.846,46.888Zm-27.788,3.864-1.753,1.474-1.776,1.49,1.308,1.6C-222.832,54.18-222.063,52.645-222.634,50.752Zm4.2,8.95a17.5,17.5,0,0,0-2.648,1.345c.984.845,1.727,1.584,2.844,1.637,1.09.052,1.562-.5,1.5-1.687C-216.8,60.008-217.465,59.4-218.434,59.7Zm5.306,3.064a12.285,12.285,0,0,0-1.413-.5,3.506,3.506,0,0,1-3.182,2.686,5.735,5.735,0,0,1-3.989-1.4c-1.254,3.115-2.484,6.167-3.707,9.222a.669.669,0,0,0-.054.424c.3.847.629,1.685.97,2.583a3.674,3.674,0,0,0,2.437-1.186,6.293,6.293,0,0,1,5.694-1.634,6.3,6.3,0,0,0,4.346-.376,8.033,8.033,0,0,0,1.335-1.133,5.743,5.743,0,0,0,1.259-3.768C-209.616,65.312-211.027,63.8-213.128,62.766Zm32.7-2.56a13.428,13.428,0,0,0-5.416.427,1.592,1.592,0,0,0-.747.452,5.108,5.108,0,0,0-.9,5.648,5.7,5.7,0,0,0,5.318,2.738,4.388,4.388,0,0,0,2.441-1.293,10.218,10.218,0,0,1,5.641-2.586c.42-.054.845-.072,1.414-.118A10.58,10.58,0,0,0-180.431,60.206Zm1.18,48.413c1.294,0,2.471.033,3.642-.029.219-.011.547-.371.6-.618a7.547,7.547,0,0,0,.028-1.5c-.982,0-1.908-.011-2.833.012a.584.584,0,0,0-.4.263C-178.56,107.325-178.871,107.922-179.251,108.619Zm-2.781-23.213c.425,1.419.719,2.877,1.1,4.448,1.67-1.974,2.845-3.983,2.128-6.579-.637-2.306-2.352-3.13-4.581-2.25-.394.155-.761.375-1.244.616A8.537,8.537,0,0,1-182.032,85.406Zm-31.628,7.143.273.013,1.556-7.279A3.874,3.874,0,0,0-214.671,88,4.443,4.443,0,0,0-213.66,92.549Zm-4.954,16.081h1.061c1.856,0,1.987-.161,1.672-2.158-1.014,0-2.043-.014-3.07.015a.684.684,0,0,0-.436.332c-.325.538-.614,1.1-1.005,1.811Zm-7.229-19.707h0c.116.061.232.132.332.192a5.44,5.44,0,0,0,3.7.733c-.018-.146-.02-.222-.036-.294a15.428,15.428,0,0,0-2.155-5.08c-.465-.718-.38-1.348.184-1.741a1.183,1.183,0,0,1,1.732.508,17.669,17.669,0,0,1,2.853,11.437,8.03,8.03,0,0,0,.419,3.282,10.362,10.362,0,0,1,.567,2.659,34.728,34.728,0,0,1-.146,3.52h3.809a1.319,1.319,0,0,0,.019-.244c-.021-.176-.047-.352-.085-.526a15.583,15.583,0,0,1,.109-7.163,1.679,1.679,0,0,0-.536-1.873,6.764,6.764,0,0,1,1.829-11.07c1.044-.477,1.755-.84,1.572-2.146-.08-.575.407-.964,1.025-1a1.07,1.07,0,0,1,1.191.939,2.45,2.45,0,0,1,.02.682c-.1,1.685-.208,3.37-.3,4.922,2.64.591,5.266,1.132,7.867,1.775a11.8,11.8,0,0,0,9.55-1.5,12.944,12.944,0,0,1,4.569-1.8c.885-.167,1.768-.345,2.682-.523a5.9,5.9,0,0,0-3.6-2.483c-.764-.18-1.546-.281-2.31-.461a1.11,1.11,0,0,1-.88-1.309,1.136,1.136,0,0,1,1.3-.912,14.04,14.04,0,0,1,2.6.53,2.033,2.033,0,0,0,2.331-.341,4.762,4.762,0,0,1,1.472-.771,5.371,5.371,0,0,1,7.519,3.609c.877,2.809.066,5.3-1.551,7.6-.536.761-1.19,1.439-1.648,1.986.917,1.978,1.935,3.822,2.637,5.78.734,2.046.124,4.189-.17,6.306h4.113c-.015-.238-.039-.433-.036-.628a32.844,32.844,0,0,1,.093-4.1c.341-2.431.854-4.839,1.315-7.253a2.769,2.769,0,0,0-.682-2.535,4.283,4.283,0,0,1-1.045-3.674c.138-.953.289-1.9.443-2.855l.887-5.631a4.158,4.158,0,0,1,.047-.454c.229-1.452.456-2.9.692-4.355a10.5,10.5,0,0,0-.2-4.813c-.163-.019-.286-.04-.41-.046a8.035,8.035,0,0,0-6.136,2.156,6.355,6.355,0,0,1-5.821,1.666,7.128,7.128,0,0,1-5.952-8.648c.115-.5.295-.981.481-1.589-6.534,1.381-13.038,1.33-19.542,1.261.008.142,0,.172.012.188.15.2.3.4.455.605a7.373,7.373,0,0,1,1.531,4.6c.127,1.468-1.637,4.1-1.637,4.1a11.624,11.624,0,0,1-1.526,2.034,7.6,7.6,0,0,1-6.323,1.048,4.191,4.191,0,0,0-3.937,1.086,6.251,6.251,0,0,1-3.622,1.772.844.844,0,0,0-.544.538,2.605,2.605,0,0,1-2.738,2.24c-.421.008-.843,0-1.3,0,.035.287.052.461.078.635.191,1.278.408,2.553.566,3.836A5.342,5.342,0,0,0-225.843,88.923Zm-8.063-10.342c1.063-.015,2.126,0,3.189,0,1.012,0,2.025-.019,3.036.009.533.015.724-.194.7-.714-.029-.657.011-1.316-.011-1.974a2.424,2.424,0,0,0-2.475-2.521c-.859-.033-1.722-.033-2.581,0a2.426,2.426,0,0,0-2.475,2.523c-.018.683.013,1.367-.009,2.05C-234.545,78.4-234.36,78.587-233.906,78.581Zm-.244-7.127a14.435,14.435,0,0,1,6.745-.012,5.051,5.051,0,0,0,.237-.462c1-2.462,1.976-4.931,2.985-7.388a4.3,4.3,0,0,0-.692-4.685c-1.014-1.233-2-2.489-3.047-3.693a1.577,1.577,0,0,0-1-.478c-1.061-.061-2.135.057-3.19-.045a1.74,1.74,0,0,0-1.9,1.076,16.29,16.29,0,0,1,2.356,1.36c1.895,1.55,2.13,3.622,1.618,5.871a9.378,9.378,0,0,1-4.227,5.894q-.316.208-.628.422c-.019.013-.026.042-.072.12Zm-3.172-7.883c.488,1.186.959,2.38,1.459,3.622a7.043,7.043,0,0,0,3.757-6.094,3.118,3.118,0,0,0-3.582-3.034.7.7,0,0,0-.387.189C-237.323,59.636-238.315,61.158-237.322,63.571Zm.652-8.23,1.337-1.624-3.5-2.939C-239.488,52.51-238.78,53.979-236.67,55.341Zm-7.877,6.782a1.218,1.218,0,0,0,1.532.517,21.844,21.844,0,0,0,2.452-1.249V61a12.917,12.917,0,0,0-2.291-1.233,2.169,2.169,0,0,0-1.575.356C-244.876,60.41-244.86,61.6-244.547,62.124Z" transform="translate(247.031 -43.007)" stroke="#000" stroke-width="0.75"/>
    <path id="Trazado_8093" data-name="Trazado 8093" d="M-1077.408,695.278a1.831,1.831,0,0,0,1.831-1.831,1.831,1.831,0,0,0-1.831-1.831,1.831,1.831,0,0,0-1.831,1.831A1.831,1.831,0,0,0-1077.408,695.278Z" transform="translate(1097.235 -674.122)" stroke="#000" stroke-width="0.75"/>
    <path id="Trazado_8094" data-name="Trazado 8094" d="M-1077.408,695.278a1.831,1.831,0,0,0,1.831-1.831,1.831,1.831,0,0,0-1.831-1.831,1.831,1.831,0,0,0-1.831,1.831A1.831,1.831,0,0,0-1077.408,695.278Z" transform="translate(1089.708 -674.122)" stroke="#000" stroke-width="0.75"/>
  </g>
</svg>
