<svg xmlns="http://www.w3.org/2000/svg" width="61.681" height="64.097" viewBox="0 0 61.681 64.097">
  <g id="Componente_37_1" data-name="Componente 37 – 1" transform="translate(0.731 0.74)">
    <g id="Grupo_13985" data-name="Grupo 13985">
      <path id="Trazado_8066" data-name="Trazado 8066" d="M-963.894,349.465c.619-.858,1.178-1.626,1.729-2.4.914-1.285.733-1.952-.785-2.467a22.374,22.374,0,0,0-10.888-.608c-4.184.67-7.919,2.241-10.71,5.618a3.021,3.021,0,0,1-1.271.714A18.183,18.183,0,0,0-997.1,361.344a3.278,3.278,0,0,0,.417,3.367,18.752,18.752,0,0,0,11.267,7.579c2.291.564,4.651.845,6.962,1.335a4.078,4.078,0,0,1,1.826.874c2.872,2.593,6.3,2.936,9.907,2.53,1.056-.119,1.262-.849.571-1.73-.544-.693-1.134-1.348-1.8-2.134a5.458,5.458,0,0,1,.975-.493,59.525,59.525,0,0,0,16.438-6.681,1.8,1.8,0,0,1,2.5.269,19.845,19.845,0,0,0,7.948,4.485c1.337.394,1.841-.059,1.5-1.4a23.78,23.78,0,0,1,.936-15.084c.584-1.46.053-2.134-1.43-1.637-2.989,1-5.895,2.254-8.859,3.336a2.8,2.8,0,0,1-1.876.118c-4.54-2.02-9.041-4.129-13.551-6.217A4.019,4.019,0,0,1-963.894,349.465Zm22.742,18.9a15.668,15.668,0,0,1-6.243-4.1c-1.056-1.172-1.949-1.134-3.259-.349a58.29,58.29,0,0,1-16.065,6.809,11.718,11.718,0,0,1-2.576-.04c-.362,0-.852.014-1.05.232a1.221,1.221,0,0,0-.154,1.071c.443,1.089.992,2.134,1.578,3.355-2.109,0-4.08-.161-5.421-1.523-1.763-1.79-3.891-2.035-6.144-2.357-4.275-.612-8.384-1.757-11.777-4.636-.679-.576-1.257-1.271-1.882-1.912l.25-.329a10.53,10.53,0,0,0,2.172.409,4.39,4.39,0,0,0,1.483-.611c-.379-.375-.695-.932-1.149-1.089-1.258-.433-2.574-.7-4.014-1.069.259-.67.417-1.135.615-1.583,1.942-4.4,5.47-7.006,9.854-8.565a34.213,34.213,0,0,1,12.068-1.556c.667.009,1.631.175,1.5-.894-.044-.348-.93-.833-1.436-.838-2.109-.021-4.22.122-6.33.194-.544.019-1.088,0-1.632,0q0-.215-.009-.429c5.147-3.153,10.668-3.757,16.935-2.381-.818,1.133-1.423,1.967-2.022,2.8-1.033,1.445-.851,1.868.892,2.365a49.558,49.558,0,0,1,13.85,6.246,3.117,3.117,0,0,0,4.017.089,23.075,23.075,0,0,1,7.013-2.92c-.377,2.4-.855,4.567-1.023,6.755C-941.286,363.743-941.153,366-941.153,368.364Z" transform="translate(997.384 -343.601)" stroke="#000" stroke-width="1.5"/>
      <path id="Trazado_8067" data-name="Trazado 8067" d="M-830.58,391.5a11.655,11.655,0,0,0-2.335-7.327,3.189,3.189,0,0,0-1.131-.957c-.344-.143-.82.032-1.237.066.062.455-.037,1.043.211,1.344a10.819,10.819,0,0,1,.517,13.736c-.324.462-.521,1.554-.268,1.778.8.711,1.309-.108,1.758-.719A12.671,12.671,0,0,0-830.58,391.5Z" transform="translate(852.153 -373.794)" stroke="#000" stroke-width="1.5"/>
      <path id="Trazado_8068" data-name="Trazado 8068" d="M-799.957,403.431a1.643,1.643,0,0,0-1.8,1.741,1.6,1.6,0,0,0,1.69,1.855,1.684,1.684,0,0,0,1.929-1.792A1.68,1.68,0,0,0-799.957,403.431Z" transform="translate(811.772 -389.264)" stroke="#000" stroke-width="1.5"/>
    </g>
    <g id="Grupo_13986" data-name="Grupo 13986" transform="translate(16.735 38.166)">
      <path id="Trazado_8066-2" data-name="Trazado 8066" d="M-978.3,347.828c-.446-.619-.85-1.172-1.247-1.73-.659-.926-.528-1.407.566-1.778a16.129,16.129,0,0,1,7.849-.438,11.956,11.956,0,0,1,7.72,4.05,2.179,2.179,0,0,0,.917.515,13.108,13.108,0,0,1,8.134,7.946,2.363,2.363,0,0,1-.3,2.427,13.518,13.518,0,0,1-8.123,5.464c-1.651.406-3.352.609-5.019.962a2.94,2.94,0,0,0-1.316.63c-2.07,1.87-4.542,2.117-7.142,1.824-.762-.086-.91-.612-.412-1.247.392-.5.818-.972,1.3-1.538a3.928,3.928,0,0,0-.7-.356,42.915,42.915,0,0,1-11.85-4.816,1.3,1.3,0,0,0-1.8.194,14.306,14.306,0,0,1-5.73,3.233c-.964.284-1.327-.043-1.081-1.006a17.142,17.142,0,0,0-.674-10.874c-.421-1.053-.038-1.539,1.031-1.18,2.155.723,4.249,1.625,6.386,2.4a2.019,2.019,0,0,0,1.352.085c3.273-1.456,6.517-2.976,9.769-4.482A2.892,2.892,0,0,0-978.3,347.828ZM-994.7,361.453a11.3,11.3,0,0,0,4.5-2.957,1.575,1.575,0,0,1,2.349-.252,42.019,42.019,0,0,0,11.581,4.909,8.457,8.457,0,0,0,1.857-.029c.261,0,.614.01.757.167a.88.88,0,0,1,.111.772c-.319.785-.715,1.538-1.138,2.419,1.52,0,2.941-.116,3.908-1.1,1.271-1.291,2.805-1.467,4.429-1.7a16.158,16.158,0,0,0,8.49-3.342c.49-.415.906-.917,1.357-1.378l-.18-.237a7.591,7.591,0,0,1-1.566.295,3.167,3.167,0,0,1-1.069-.441c.273-.27.5-.672.828-.785.907-.312,1.855-.5,2.893-.771-.187-.483-.3-.818-.443-1.141a11.443,11.443,0,0,0-7.1-6.174,24.662,24.662,0,0,0-8.7-1.122c-.481.007-1.176.126-1.079-.645.031-.251.671-.6,1.035-.6,1.52-.015,3.042.088,4.563.14.392.014.785,0,1.177,0q0-.155.006-.309c-3.711-2.273-7.691-2.708-12.208-1.717.589.817,1.026,1.418,1.458,2.022.745,1.041.613,1.347-.643,1.7a35.726,35.726,0,0,0-9.984,4.5,2.247,2.247,0,0,1-2.9.064,16.636,16.636,0,0,0-5.056-2.105c.272,1.731.616,3.292.737,4.87C-994.6,358.121-994.7,359.745-994.7,361.453Z" transform="translate(997.384 -343.601)" stroke="#000" stroke-width="2"/>
      <path id="Trazado_8067-2" data-name="Trazado 8067" d="M-835.282,389.173a8.4,8.4,0,0,1,1.683-5.282,2.3,2.3,0,0,1,.815-.69c.248-.1.591.023.892.048-.045.328.027.752-.152.969a7.8,7.8,0,0,0-.372,9.9c.233.333.376,1.12.193,1.282-.578.512-.944-.078-1.267-.518A9.135,9.135,0,0,1-835.282,389.173Z" transform="translate(862.954 -376.409)" stroke="#000" stroke-width="2"/>
      <path id="Trazado_8068-2" data-name="Trazado 8068" d="M-800.444,403.431a1.185,1.185,0,0,1,1.3,1.255,1.152,1.152,0,0,1-1.218,1.337,1.214,1.214,0,0,1-1.39-1.292A1.211,1.211,0,0,1-800.444,403.431Z" transform="translate(835.151 -393.218)" stroke="#000" stroke-width="2"/>
    </g>
  </g>
</svg>
