<svg xmlns="http://www.w3.org/2000/svg" width="62.808" height="71.47" viewBox="0 0 62.808 71.47">
  <g id="Componente_42_1" data-name="Componente 42 – 1" transform="translate(0.361 0.371)">
    <g id="Grupo_13899" data-name="Grupo 13899">
      <path id="Trazado_8097" data-name="Trazado 8097" d="M820.324-188.431c-3.114-1.731-3.677-3.524-2.33-7.265-.233,0-.439-.007-.644,0-.731.028-1.463.063-2.194.094a6.78,6.78,0,0,1,.038-2.494,25.869,25.869,0,0,1,2.177-3.531,5.84,5.84,0,0,1-.622-7.386,3.628,3.628,0,0,1,4.411-1.723c1.8-3.032,3.089-3.271,5.733-1.023,1.852-1.116,3.782-1.632,5.474.345,1.344,1.57,1.218,3.412-.105,5.457,2.692,3.163,5.313,6.24,7.929,9.321.5.593,1.005,1.189,1.479,1.805,5.068,6.6,12.018,7.548,19.57,6.137,1.805-.338,3.462-1.657,5.086-2.683,1.071-.677,1.93-1.676,2.939-2.461,1.315-1.024,2.8-1.55,4.321-.527,1.5,1.009,1.111,2.494.716,3.917,2.506,1.189,2.641,2.438.621,5.762,2.87,2.477,2.847,3.714.427,6.734a26.183,26.183,0,0,0-3.461,5.634,32.611,32.611,0,0,1-7.6,10.619c-2.267,2.13-4.329,4.476-6.568,6.637-1.32,1.274-2.808,2.379-4.678,3.941a14.215,14.215,0,0,0,.093,3.856c.247.987,1.338,1.789,2.114,2.617.625.667.965,1.356.055,1.91-.318.193-1.047-.057-1.466-.307a11.13,11.13,0,0,1-1.575-1.393c-1.721,2.55-4.279,1.818-6.619,1.813-.326,0-.958-.649-.909-.894a1.54,1.54,0,0,1,.93-1.069,25.715,25.715,0,0,1,3.177-.082c1.34-.032,2.089-.663,2.053-2.057-.007-.277,0-.554,0-.831.016-4.535.015-4.535-3.972-7.006-.976.733-1.982,1.412-2.881,2.208a1.933,1.933,0,0,0-.475,1.274c-.057,1.549.018,3.1-.037,4.652a3.738,3.738,0,0,1-3.786,3.842,20.78,20.78,0,0,1-3.514-.031c-.384-.044-.7-.647-1.054-.994.351-.345.669-.931,1.062-.987a29.827,29.827,0,0,1,3.178-.075c1.244-.04,2.011-.55,1.912-1.94a15.194,15.194,0,0,1,0-2.325,3.926,3.926,0,0,0-2.02-4.259c-1.455-.921-2.231-3.05-3.034-4.767a4.909,4.909,0,0,0-1.969-2.261,74.036,74.036,0,0,1-9.2-6.293c-6.384-5.584-7.72-12.651-5.242-20.566C819.989-187.5,820.144-187.912,820.324-188.431Zm52.248-4.146-.628-.441c-1.149.878-2.264,1.8-3.455,2.622-1.77,1.215-3.445,2.812-5.421,3.442-6.243,1.989-16.84,1.731-22.923-6.275a88.837,88.837,0,0,0-6.836-8.188,17.3,17.3,0,0,0-5.173-3.465,4.79,4.79,0,0,0-5.086.582c-1.02.817-1.841,1.726-.74,3.213a6.2,6.2,0,0,1,.549,2.526c.081.472-.058,1.054.172,1.417,1.815,2.863,1.4,5.546-.117,8.453-3.842,7.354-2.429,15.116,3.713,20.716a40.234,40.234,0,0,0,14.5,8.409,25.119,25.119,0,0,1,8.608,4.309c2.219,1.881,3.758,1.668,5.749-.468,2.35-2.52,4.694-5.057,7.2-7.421a32.2,32.2,0,0,0,7.244-10.061,59.227,59.227,0,0,1,4.225-6.722,3.736,3.736,0,0,0,.659-1.125c.161-.831-.029-1.4-1.153-1.226a5.6,5.6,0,0,1-1.77-.313,8.232,8.232,0,0,1,.644-1.732c.759-1.174,1.816-2.211,1.5-3.834-.321-.043-.539-.059-.752-.1-.563-.113-1.123-.236-1.685-.356.139-.594.272-1.19.419-1.782C872.194-191.126,872.385-191.85,872.571-192.577Zm-53.087-10.455c1.955-3.884,5.14-5.129,9.28-3.993,1.07.293,1.912.013,2.166-.893a2.931,2.931,0,0,0-.487-2.215c-.617-.848-1.461-.448-2.171.142a1.84,1.84,0,0,1-2.894-.224c-1.012-1.1-1.814-.885-2.194.6-.4,1.545-1.166,1.831-2.568,1.176a1.8,1.8,0,0,0-1.5.031C817.4-207.245,817.594-204.218,819.484-203.032Zm18.968,44.872c.834,2,1.439,3.661,3.44,3.966,1.257.192,2.142-.494,2.856-1.717Zm-17.066-37.979c-1.624,1.482-2.286,2.714-1.745,4.229a1.973,1.973,0,0,0,1.408,1.039c.315.034,1.047-.779,1.028-1.186A32.866,32.866,0,0,0,821.386-196.139Zm-1.475-4.3-2.234,2.124C821.192-198.549,821.192-198.549,819.912-200.436Z" transform="translate(-815.048 213.254)" stroke="#020202" stroke-width="0.75"/>
      <path id="Trazado_8098" data-name="Trazado 8098" d="M846.157-139.371l6.8,2.451" transform="translate(-822.964 194.303)" fill="#fff" stroke="#020202" stroke-width="0.75"/>
      <path id="Trazado_8099" data-name="Trazado 8099" d="M862.346-159.7a30.649,30.649,0,0,1-4.027-1.387c-.5-.25-.693-1.135-1.025-1.731.671-.106,1.5-.518,1.989-.271,4.581,2.3,10.428-.952,12.268-4.24a11.573,11.573,0,0,0,.537-1.462c-1.895-.444-3.679-.872-5.467-1.28-1.645-.375-3.323-.642-4.926-1.147-.5-.158-.812-.934-1.209-1.428.535-.26,1.129-.822,1.6-.732,3.372.65,6.744,1.337,10.064,2.208,2.086.547,2.73,2.546,1.614,4.7a12.1,12.1,0,0,1-6.979,5.706,3.657,3.657,0,0,0-2.288,2c-2.211,4.551-6.749,6.6-12.184,5.547a30.046,30.046,0,0,1-14.2-7.193,11.3,11.3,0,0,1-2.724-13.69,9.092,9.092,0,0,1,8.328-5.137c.5-.007,1.008.692,1.512,1.064-.431.392-.843,1.094-1.3,1.125-3.447.234-5.854,1.865-6.947,5.136a8.584,8.584,0,0,0,2.537,9.575,26.541,26.541,0,0,0,13.026,6.7,15.129,15.129,0,0,0,4.651.057A6.461,6.461,0,0,0,862.346-159.7Z" transform="translate(-821.494 203.428)" stroke="#020202" stroke-width="0.75"/>
      <path id="Trazado_8100" data-name="Trazado 8100" d="M830.116-199.8c1.48.159,2.229.967,2.165,2.281a1.991,1.991,0,0,1-2.136,2.012,1.971,1.971,0,0,1-2.121-2.181A2.018,2.018,0,0,1,830.116-199.8Z" transform="translate(-818.315 210.731)" stroke="#020202" stroke-width="0.75"/>
    </g>
  </g>
</svg>
