<svg xmlns="http://www.w3.org/2000/svg" width="82.565" height="47.585" viewBox="0 0 82.565 47.585">
  <g id="Componente_44_1" data-name="Componente 44 – 1" transform="translate(0.5 0.498)">
    <path id="Trazado_8088" data-name="Trazado 8088" d="M130.245,284.536c2.5-2.63,4.722-5.485,8.732-5.435v-2.463a10.529,10.529,0,0,0-6.972,2.664c-1.469,1.333-2.828,2.789-4.223,4.2a1.312,1.312,0,0,0,.116,2.246c2.8,2.335,6.029,2.713,9.464,2.014a9.893,9.893,0,0,0,5-2.562l-1.692-1.669A9.614,9.614,0,0,1,130.245,284.536Z" transform="translate(-110.039 -271.724)" stroke="#000" stroke-width="1"/>
    <path id="Trazado_8090" data-name="Trazado 8090" d="M178.842,279.064a13.576,13.576,0,0,0-.7-1.947l-2.273,1.012c.152.343.315.676.45,1.019a1.2,1.2,0,0,1-.532,1.653,1.213,1.213,0,0,1-1.678-.634c-.329-.637-.59-1.308-.889-1.961a3.6,3.6,0,0,0-4.932-2.034,16.94,16.94,0,0,0-14.491-8.035c-9.6-.066-19.2-.023-28.8,0a16.843,16.843,0,0,0-7.664,1.881c-1.141.58-2.215,1.29-3.155,1.844a33.54,33.54,0,0,0-3.6-1.895c-2.763-1.06-5.668-.613-8.525-.551a1.029,1.029,0,0,0-.96,1.218,20.894,20.894,0,0,0,.288,3.064,6.9,6.9,0,0,0,5.139,5.675c.544.156,1.077.35,1.671.544-1.327,2.757-2.558,5.479-3.934,8.126a6.108,6.108,0,0,1-5.28,3.327,1.792,1.792,0,0,0-1.592.894v6.894a1.955,1.955,0,0,0,1.534.885q7.283,1.016,14.559,2.085c1.064.154,1.062.172,1.063,1.272q0,4.7,0,9.408c0,1.542.326,1.873,1.837,1.873q1.939,0,3.878,0c1.146,0,1.477-.281,1.7-1.4q.927-4.641,1.86-9.281c.144-.719.354-.831,1.05-.574,1.053.389,2.092.823,3.161,1.163a34.9,34.9,0,0,0,15.615,1.122,24.874,24.874,0,0,0,11.636-4.345.731.731,0,0,1,.672.036c1.493,1.072,2.958,2.182,4.441,3.267.4.293.363.567.132.961-1.028,1.754-2.052,3.51-3.027,5.293a2.432,2.432,0,0,0,2.217,3.758c1.149.014,2.3-.023,3.447.012a1.836,1.836,0,0,0,1.682-.879q2.792-3.96,5.634-7.884a1.65,1.65,0,0,0,.076-2.039,10.95,10.95,0,0,1-1.141-8.508c.513-2.06.974-4.142,1.287-6.241a20.138,20.138,0,0,0-.143-7.358,18.407,18.407,0,0,0-1.145-3.456,1.306,1.306,0,0,1,1.582.9c.321.7.6,1.413.951,2.091a3.657,3.657,0,0,0,4.406,1.905A3.6,3.6,0,0,0,178.842,279.064Zm-72.25-2.241a4.067,4.067,0,0,1-2.471-2.446c-.286-.8-.435-1.643-.672-2.57,3.185-.036,6.226-.415,8.645,1.817-.892,1.26-1.762,2.509-2.664,3.734a.671.671,0,0,1-.58.159A20.606,20.606,0,0,1,106.592,276.823Zm61.824,11.663c-.036.264-.082.5-.132.729-.238,1.244-.439,2.47-.741,3.67a20.191,20.191,0,0,0-.972,5.845,13.288,13.288,0,0,0,1.421,5.581.792.792,0,0,1-.07.962c-1.574,2.169-3.113,4.362-4.694,6.525a1.19,1.19,0,0,1-.8.417c-.905.052-1.816.02-2.856.02.146-.273.247-.471.357-.664q1.635-2.866,3.273-5.731c.544-.955.488-1.32-.26-2.094a29.247,29.247,0,0,0-6.495-4.93,7.679,7.679,0,0,1-3.7-4.988c-.1-.394-.153-.8-.245-1.284l-2.389.174a10.567,10.567,0,0,0,3.374,7c-1.126.589-2.143,1.219-3.233,1.675a32.125,32.125,0,0,1-14.844,2.147,30.031,30.031,0,0,1-9.564-2.359c-2.244-.938-4,.045-4.472,2.431q-.8,4.082-1.618,8.159a4.021,4.021,0,0,1-.134.422H117V311.3c0-2.729.006-5.457,0-8.186a3.052,3.052,0,0,0-3.007-3.4c-4.688-.658-9.373-1.341-14.109-2.021V293.9a30.5,30.5,0,0,0,3.111-1.24,8.861,8.861,0,0,0,3.879-4.283c1.327-2.836,2.634-5.682,4.033-8.481,3.041-6.082,7.986-9.267,14.8-9.316,9.262-.067,18.526-.026,27.789-.014a14.548,14.548,0,0,1,14.168,10.015,11.538,11.538,0,0,1,.43,1.73h0A20.764,20.764,0,0,1,168.416,288.486Z" transform="translate(-97.381 -268.102)" stroke="#000" stroke-width="1"/>
    <path id="Trazado_8092" data-name="Trazado 8092" d="M-1077.411,695.271a1.828,1.828,0,0,0,1.827-1.827,1.828,1.828,0,0,0-1.827-1.828,1.828,1.828,0,0,0-1.828,1.828A1.828,1.828,0,0,0-1077.411,695.271Z" transform="translate(1094.011 -671.978)" stroke="#000" stroke-width="1"/>
  </g>
</svg>
