<svg xmlns="http://www.w3.org/2000/svg" width="74.66" height="59.175" viewBox="0 0 74.66 59.175">
  <g id="Componente_36_1" data-name="Componente 36 – 1" transform="translate(0.504 0.5)">
    <path id="Trazado_8140" data-name="Trazado 8140" d="M-892.024-219.875a.474.474,0,0,0-.042-.107,5.063,5.063,0,0,0-3.441-2.322,26.658,26.658,0,0,0-5.5-.795c-2.588-.168-5.216-.21-7.758-.25-1.164-.018-2.368-.037-3.561-.068a2.911,2.911,0,0,0-1-.007,2.444,2.444,0,0,1-.6.022.469.469,0,0,0-.055,0c-.085,0-.17,0-.274,0a3.511,3.511,0,0,1-.464-.019,20.294,20.294,0,0,0-2.037-.042c-.42.006-.855.011-1.28,0-.9-.027-1.791,0-2.657.022l-.982.026-.2.023a.479.479,0,0,0-.171.053c-.023,0-.069,0-.095,0a1.118,1.118,0,0,0-.449.058,19.149,19.149,0,0,0-4.228,1.075c-.114.04-.231.073-.361.111l-.18.053a.471.471,0,0,0-.167.089.807.807,0,0,1-.34.134.478.478,0,0,0-.169.048l-5.289,2.648a.464.464,0,0,0-.091.059.45.45,0,0,0-.059.049.435.435,0,0,1-.086.065.481.481,0,0,0-.164.021.478.478,0,0,0-.246.177l-2.948,1.805a.464.464,0,0,0-.075.045c-.342.252-.687.5-1.036.747-.906.647-1.843,1.317-2.708,2.069a15.784,15.784,0,0,0-3,3.318l-.141.211a.477.477,0,0,0-.08.274c0,.008,0,.016,0,.025-.732,2.106-.422,3.065,1.413,4.433a.476.476,0,0,0,.185.084l.02.009a10.567,10.567,0,0,0,3.889.858,1.57,1.57,0,0,0,.536.053c.044,0,.088,0,.129,0,.388.011.776,0,1.159-.019a10.7,10.7,0,0,1,1.609.016,3.938,3.938,0,0,0,.437.024,8.089,8.089,0,0,0,1.4-.16,6.42,6.42,0,0,1,1.379-.141c.12.005.241.018.368.031a3.023,3.023,0,0,0,1.221-.047l.232-.011a.475.475,0,0,0,.175-.043.713.713,0,0,1,.244-.013,1.569,1.569,0,0,0,.553-.052,25.135,25.135,0,0,0,2.746-.267l.622-.083a32.524,32.524,0,0,1,4.963-.207,36.364,36.364,0,0,0,9.3-.882,1.327,1.327,0,0,1,.187-.021l.068-.006a.528.528,0,0,0,.219-.053.514.514,0,0,0,.076-.014,58.188,58.188,0,0,0,8.115-2.841q.78-.34,1.563-.674l.716-.309q.424-.224.851-.445l.04-.021a33.873,33.873,0,0,0,4.054-2.357A13.1,13.1,0,0,0-893.4-215.2,4.766,4.766,0,0,0-892-219.8.463.463,0,0,0-892.024-219.875Zm-8.235,3.373c-.066-.423-.134-.861-.169-1.288a.482.482,0,0,0-.012-.074l-.208-.854c-.154-.635-.313-1.288-.477-1.935l.458.01.262,0c.368.038.736.051,1.1.064a11.958,11.958,0,0,1,1.348.1,5.574,5.574,0,0,1,1.82.5l1.15.468a1.15,1.15,0,0,1,.722.732.486.486,0,0,0,.065.127.327.327,0,0,1-.02.042.451.451,0,0,0-.036.088c-.483,1.6-1.729,2.488-3.323,3.5a15.622,15.622,0,0,1-2.159,1.281l-.272.142,0-.019c-.008-.049-.015-.1-.021-.147a.394.394,0,0,0-.083-.206.506.506,0,0,1,.037-.151.478.478,0,0,0,.024-.133A11.752,11.752,0,0,0-900.259-216.5Zm-9.01-3.347c-.111-.348-.23-.689-.357-1.048l.953.009c1.675.016,3.258.03,4.866.132a.474.474,0,0,0,.126-.009c.028.166.065.33.1.495l.031.14a1.456,1.456,0,0,0,.178.7.692.692,0,0,1,.09.266.476.476,0,0,0,.013.184,23.6,23.6,0,0,1,.83,6.544c0,.007,0,.013,0,.018-.278.1-.553.219-.824.333l-.36.151a41.453,41.453,0,0,1-4.023,1.617c0-.13,0-.259.008-.387a7.682,7.682,0,0,0-.1-1.785h0a.471.471,0,0,0-.074-.172.612.612,0,0,1,.018-.225c.006-.036.012-.072.017-.107a.469.469,0,0,0,0-.11A30.791,30.791,0,0,0-909.268-219.85Zm-6.064,11.486a.669.669,0,0,1-.108.007,1.086,1.086,0,0,1-.017-.225c0-.122.008-.246.016-.383a3.226,3.226,0,0,0-.116-1.32,17.5,17.5,0,0,1-.181-2.659.509.509,0,0,0-.007-.071,30.986,30.986,0,0,0-2.7-8.212c1.229-.025,2.441.035,3.624.094l.064,0c.336.017.672.033,1.008.048.091,0,.182.011.282.019.083.007.167.014.251.018a2.719,2.719,0,0,1,.9.118,2.841,2.841,0,0,1,.377.859,30.838,30.838,0,0,1,1.9,9.08l-.014.1a3.014,3.014,0,0,0-.042.333,2.972,2.972,0,0,1-.125.967,2.7,2.7,0,0,1-.862.308l-.049.013c-.819.225-1.677.379-2.506.528-.438.079-.877.158-1.313.247a.477.477,0,0,0-.24.128h-.007A.454.454,0,0,0-915.332-208.363Zm-12.031-6.528a.464.464,0,0,0,.026.087,17.089,17.089,0,0,1,1.459,6.422,3.47,3.47,0,0,1-.025.393l-1.332.139-.143.015c-1.148.12-2.335.245-3.5.352-.915.084-1.847.15-2.749.215l-.083.006-.879.063a33.012,33.012,0,0,0-1.811-6.938.9.9,0,0,1-.041-.13.834.834,0,0,1,.105-.079,60.985,60.985,0,0,1,7.256-4.2,2.185,2.185,0,0,0,.17.316l.052.084.711,1.453a.479.479,0,0,0,.153.18c.006.024.012.048.018.072s.007.028.012.042a.478.478,0,0,0,.108.26.515.515,0,0,1,.027.119.48.48,0,0,0,.152.279c0,.013.006.026.009.039l.1.361a.485.485,0,0,0,.1.183A.539.539,0,0,1-927.364-214.892Zm-10.778,3.268a.779.779,0,0,1,.1.4.492.492,0,0,0,.025.116,22,22,0,0,1,.936,3.886,13.531,13.531,0,0,1-3.7-.541,1.679,1.679,0,0,1-.872-.508.472.472,0,0,0-.115-.111l-.013-.009a.476.476,0,0,0-.049-.195c-.114-.232-.056-.394.2-.831.035-.059.07-.118.1-.176a.444.444,0,0,0,.027-.057l.014-.034c.007-.018.026-.064.038-.09a.474.474,0,0,0,.222-.291.455.455,0,0,0,.073-.083l.337-.486a.479.479,0,0,0,.068-.147,1.127,1.127,0,0,1,.749-.733,1.88,1.88,0,0,0,.5-.383.892.892,0,0,1,.273-.215.48.48,0,0,0,.169-.1l.311-.286a.465.465,0,0,0,.047-.05c.089-.109.159-.188.214-.246q.025.116.052.3l.016.1a.485.485,0,0,0,.03.107A.711.711,0,0,0-938.141-211.623Zm14.5.489a.459.459,0,0,0-.011-.067l-.385-1.6a.476.476,0,0,0-.081-.173V-213a1.522,1.522,0,0,0-.007-.184.471.471,0,0,0-.045-.157,3.414,3.414,0,0,1-.315-.991.487.487,0,0,0-.044-.141,8.93,8.93,0,0,1-.378-.932,7.889,7.889,0,0,0-.567-1.3.428.428,0,0,0-.026-.04,6.742,6.742,0,0,1-.6-1.074c-.01-.039-.021-.077-.032-.115a.738.738,0,0,1-.031-.131.483.483,0,0,0-.021-.173,4.711,4.711,0,0,0-.63-1.258.477.477,0,0,0,.141-.1l.081.027-.021-.071.129-.038a.481.481,0,0,0,.057-.021.475.475,0,0,0,.1-.032l.13-.058a4.508,4.508,0,0,1,1.527-.481.478.478,0,0,0,.178-.047,1.65,1.65,0,0,0,.154-.088l.028-.017a.478.478,0,0,0,.214-.029,4.373,4.373,0,0,1,1.345-.316.5.5,0,0,0,.1-.015.442.442,0,0,0,.066-.012.468.468,0,0,0,.144-.062.665.665,0,0,1,.359-.035.575.575,0,0,0,.24-.056l.044-.013a1.282,1.282,0,0,1,.453-.038.472.472,0,0,0,.18-.029l.009.018a.492.492,0,0,0,.043.071,4.721,4.721,0,0,1,.778,1.619.487.487,0,0,0,.053.128l.151.25a1.4,1.4,0,0,1,.236.551.465.465,0,0,0,.035.114.478.478,0,0,0,.087.188.688.688,0,0,1,.144.374.491.491,0,0,0,.033.137,23.1,23.1,0,0,1,1.791,9.306c-1.657,0-3.436.013-5.587.031a15.544,15.544,0,0,0-.151-2.065l-.237.027.237-.028C-923.584-210.584-923.617-210.859-923.643-211.134Z" transform="translate(946.141 262.984)" stroke="#000" stroke-width="1"/>
    <path id="Trazado_8141" data-name="Trazado 8141" d="M-939.886-369.725a.47.47,0,0,0,.09.057,2.352,2.352,0,0,1,.991.777.77.77,0,0,0,.253.276.481.481,0,0,0,.16.21l.491.363a.422.422,0,0,0,.054.035,11.62,11.62,0,0,1,1.51,1.065c.124.1.247.194.384.3l1.575,1.1a.48.48,0,0,0,.083.046,9.224,9.224,0,0,1,1.342.894.474.474,0,0,0,.1.059q.39.223.778.448a35.269,35.269,0,0,0,5.023,2.553c.589.224,1.174.457,1.771.695l.824.327.32.116,2.721.71.031.011a9.156,9.156,0,0,0,1.929.51.924.924,0,0,0,.562.148h.03a.482.482,0,0,0,.262.086l.042.008.7.111.743.094a.471.471,0,0,0,.252.138.478.478,0,0,0,.248.029,2.185,2.185,0,0,1,.639.041,3.958,3.958,0,0,0,.636.063.564.564,0,0,0,.147-.028,1.756,1.756,0,0,0,.8.162c.08,0,.156,0,.227.012a3.377,3.377,0,0,0,1.044.092c.131,0,.263-.006.4,0a.505.505,0,0,0,.241-.057.479.479,0,0,0,.237.065l.964.007.038,0c.022,0,.047-.006.073-.012a.479.479,0,0,0,.151.024h1.085l.358-.016a.474.474,0,0,0,.234-.074.725.725,0,0,1,.317-.042,1.508,1.508,0,0,0,.765-.161.471.471,0,0,0,.079-.057l.035-.029a.57.57,0,0,1,.657-.155.481.481,0,0,0,.419-.03c.027-.016.054-.032.1-.059a.27.27,0,0,1,.047-.027c2.406-.968,3.147-2.674,2.2-5.069a17.661,17.661,0,0,0-3.5-5.162,45.39,45.39,0,0,0-3.35-3.279q-.347-.317-.694-.635a.474.474,0,0,0-.118-.08l-.166-.079-.3-.305a.472.472,0,0,0-.177-.113l-.014-.022a.479.479,0,0,0-.111-.12l-.829-.631a.478.478,0,0,0-.14-.072.805.805,0,0,0-.124-.116,33.12,33.12,0,0,0-6.81-4.1c-2.8-1.2-5.7-2.27-8.5-3.3-1.917-.706-3.9-1.435-5.829-2.2a39.5,39.5,0,0,1-6.455-3.083.478.478,0,0,0-.132-.057.469.469,0,0,0-.109-.078l-.728-.379a.489.489,0,0,0-.158-.048.478.478,0,0,0-.109-.066A10.825,10.825,0,0,0-947.544-389a4.517,4.517,0,0,0-3.064,1.117,3.858,3.858,0,0,0-1.236,3.931,11.287,11.287,0,0,0,2.028,4.2A50.781,50.781,0,0,0-939.886-369.725Zm-4.31-7.162.014-.033.062-.141a30.911,30.911,0,0,1,1.758-3.555,14.618,14.618,0,0,1,1.971-2.976l.028-.032.015.009c.315.18.639.337.957.49l.423.205,3.219,1.323a.476.476,0,0,0,.12.032.811.811,0,0,1,.29.083,35.183,35.183,0,0,0-4.271,8.579l-.071.193c-1.05-.888-1.938-1.658-2.786-2.514a.652.652,0,0,0-.158-.113.472.472,0,0,0-.109-.158l-.222-.212a.454.454,0,0,0-.056-.046,5.162,5.162,0,0,1-.766-.713c-.116-.123-.233-.247-.353-.366A.464.464,0,0,0-944.2-376.886Zm-5.312-8.6c.018-.236.151-.427.464-.664a1.633,1.633,0,0,0,.165-.055.47.47,0,0,0,.112-.062l.01,0a.483.483,0,0,0,.105-.04c.057-.03.112-.061.172-.095l.059-.033a.474.474,0,0,0,.331.041.935.935,0,0,0,.247-.1.473.473,0,0,0,.276-.039.364.364,0,0,1,.315.013.49.49,0,0,0,.121.03,11.861,11.861,0,0,1,4.558,1.708c-.323.4-.63.824-.93,1.234q-.192.263-.386.526a.475.475,0,0,0-.079.165,1.177,1.177,0,0,1-.351.592.471.471,0,0,0-.1.133l-1.182,2.308a.459.459,0,0,0-.033.083l-.016.053a.942.942,0,0,1-.19.422.666.666,0,0,0-.25.323,1.492,1.492,0,0,1-.337-.426.459.459,0,0,0-.032-.05.479.479,0,0,0-.132-.168,3.284,3.284,0,0,1-.552-.648c-.065-.09-.13-.181-.2-.268a12.1,12.1,0,0,1-1.4-2.185.481.481,0,0,0-.163-.192c-.027-.057-.055-.114-.084-.17a2.336,2.336,0,0,1-.148-.332.492.492,0,0,0-.065-.132l-.03-.042-.015-.021a.476.476,0,0,0-.087-.277.631.631,0,0,1-.066-.345.475.475,0,0,0-.075-.245c-.022-.034-.044-.069-.068-.1a.733.733,0,0,1-.011-.084.891.891,0,0,1,.023-.211.477.477,0,0,0,.007-.1.422.422,0,0,1,.018-.134.49.49,0,0,0,.018-.116A1.162,1.162,0,0,0-949.508-385.486Zm18.828,19.349a29.728,29.728,0,0,1,4.244-9.752,12.2,12.2,0,0,1,1.382-1.548c.106-.1.131-.1.145-.1a.391.391,0,0,1,.13.035l.133.052a35.171,35.171,0,0,1,5.022,2.307,24.789,24.789,0,0,0-5.593,11.605c-.007.032-.014.059-.02.082l-.06-.022a33.475,33.475,0,0,1-5.3-2.609l-.069-.041Zm3.1-11.867-.174-.164c-.163.17-.332.345-.5.559l-.85,1.178a.486.486,0,0,0-.038.063,11.052,11.052,0,0,1-.9,1.526.475.475,0,0,0-.048.08l-1.078,2.291a.469.469,0,0,0-.034.1,7.671,7.671,0,0,1-.553,1.361.473.473,0,0,0-.045.124.476.476,0,0,0-.031.146.479.479,0,0,0-.085.16l-.935,3.05-2.683-1.865a.475.475,0,0,0-.272-.085h-.023a14.193,14.193,0,0,0-1.872-1.38,34.851,34.851,0,0,1,4.078-8.748,3.387,3.387,0,0,1,.229-.281c.041-.047.083-.1.135-.159s.1-.137.148-.208a1.948,1.948,0,0,1,.234-.3.491.491,0,0,1,.193.1.478.478,0,0,0,.177.083.478.478,0,0,0,.081.026,4.351,4.351,0,0,1,1.091.415.478.478,0,0,0,.115.044,9.694,9.694,0,0,1,1.864.686l.047.019,1.9.651c-.1.12-.218.239-.336.361Zm12.687,6.122a.462.462,0,0,0,.309.15l.014.014a.479.479,0,0,0,.248.275.335.335,0,0,1,.122.1.511.511,0,0,0,.3.169,4.362,4.362,0,0,1,1.613,1.452.506.506,0,0,0,.063.077l.341.34c.263.263.536.536.816.8l-.005.007a22.6,22.6,0,0,0-3.167,5.743c-.017.03-.033.06-.047.089l-.015.03a3.576,3.576,0,0,0-.293.853l-.035.138c-.024.055-.05.111-.082.178a2.737,2.737,0,0,0-.235.634h0l-2.035-.345a.464.464,0,0,0-.079-.007.474.474,0,0,0-.253.073.239.239,0,0,1-.042.02c-.015.006-.046.017-.159-.065-.02-.015-.041-.03-.061-.047a.48.48,0,0,0-.2-.1l-.988-.229a.438.438,0,0,0-.125-.012.48.48,0,0,0-.1-.032l-.985-.209a1,1,0,0,0-.579-.137,2.083,2.083,0,0,0-.871-.236l-.4-.133c-.366-.122-.732-.245-1.1-.36.056-.221.108-.444.164-.679a14.754,14.754,0,0,1,.587-2.044.486.486,0,0,0,.024-.079,5,5,0,0,1,.454-1.339.468.468,0,0,0,.045-.127.458.458,0,0,0,.016-.047,7.739,7.739,0,0,1,.666-1.59.43.43,0,0,0,.056-.259.921.921,0,0,1,.084-.126l.045-.061a.478.478,0,0,0,.058-.108,3.368,3.368,0,0,1,.442-.837.474.474,0,0,0,.091-.216.479.479,0,0,0,.044-.06l.389-.623a13.907,13.907,0,0,1,2.264-2.965c.406.3.824.58,1.233.857l.43.293.013.025.014.025a.479.479,0,0,0,.179.177A3.043,3.043,0,0,1-914.9-371.883Zm5.117,11.21a.523.523,0,0,0-.208-.026l-1.1.1a.492.492,0,0,0-.07.011.485.485,0,0,0-.1-.014l-.874-.029-.01,0a1.029,1.029,0,0,0-.259-.069c.132-.334.247-.674.358-1l.132-.388c.223-.424.426-.86.623-1.283a17.657,17.657,0,0,1,.981-1.9c.175-.281.367-.563.557-.844.121-.179.242-.357.36-.537a16.48,16.48,0,0,1,2.448,3.733.453.453,0,0,0,.03.057,1.263,1.263,0,0,1,.247.947,1.118,1.118,0,0,1-.6.636c-.085.047-.169.1-.255.148a1.363,1.363,0,0,1-.966.31.445.445,0,0,0-.058-.01.458.458,0,0,0-.162,0l-.975.145A.47.47,0,0,0-909.778-360.673Zm-5.821-12.075Z" transform="translate(951.955 389)" stroke="#000" stroke-width="1"/>
    <path id="Trazado_8142" data-name="Trazado 8142" d="M-722.835-342.572l-.038-.377a35.339,35.339,0,0,0-.647-4.511l0-.084a3.26,3.26,0,0,0-.025-.331,35.136,35.136,0,0,0-4.631-12.894c-1.131-2.235-2.122-4.006-3.115-5.568l-.065-.106a31.577,31.577,0,0,0-1.992-3.194,29.834,29.834,0,0,0-5.685-6.629,7.458,7.458,0,0,0-3.64-1.818,2.738,2.738,0,0,0-1.393-.018,3.007,3.007,0,0,0-2.49,1.928,6.781,6.781,0,0,0-.768,3.12,25.477,25.477,0,0,0,.364,5.841,49.39,49.39,0,0,0,1.3,6.214l0,.056a1.7,1.7,0,0,0,.044.33,117.013,117.013,0,0,0,5.673,16.921c.841,1.957,1.827,3.871,2.781,5.722l.363.7a.466.466,0,0,0,.034.056l.11.156a3.166,3.166,0,0,1,.521.924.475.475,0,0,0,.082.163l.115.148c.279.362.537.759.79,1.149a13.515,13.515,0,0,0,1.157,1.605.445.445,0,0,0,.231.142.872.872,0,0,1,.087.156c0,.005,0,.01,0,.016a.671.671,0,0,0,.069.254.585.585,0,0,0,.1.141.479.479,0,0,0,.087.09.978.978,0,0,0,.083.059.475.475,0,0,0,.03.105.475.475,0,0,0,.3.274.8.8,0,0,1,.608.664.476.476,0,0,0,.059.186.475.475,0,0,0,.2.191.476.476,0,0,0,.248.139.244.244,0,0,1,.217.215.484.484,0,0,0,.424.354,1.554,1.554,0,0,1,.533.4,3.505,3.505,0,0,0,.473.409.48.48,0,0,0,.252.378c.179.095.361.205.541.315a6.016,6.016,0,0,0,1.258.632l.153.051a5,5,0,0,0,1.571.335,2.469,2.469,0,0,0,.887-.161,1.158,1.158,0,0,0,.672-.322,4.951,4.951,0,0,0,1.844-3.475,8.506,8.506,0,0,0,.344-2.017l.016-.186A46.193,46.193,0,0,0-722.835-342.572Zm-21.3-22.762h0a1.119,1.119,0,0,1-.1-.575.481.481,0,0,0-.1-.324c0-.008,0-.02,0-.034a.485.485,0,0,0,0-.121l-.035-.307a.48.48,0,0,0-.071-.2.753.753,0,0,1-.032-.377.479.479,0,0,0-.027-.18,3.112,3.112,0,0,1-.15-.514,2.745,2.745,0,0,1,.449-.139,24.415,24.415,0,0,0,6.955-2.708c1.08,1.4,2.136,2.937,3.412,4.973a12.039,12.039,0,0,1-2.61,1.609.469.469,0,0,0-.1.057,2.416,2.416,0,0,1-.836.38.493.493,0,0,0-.077.028.48.48,0,0,0-.149.073,1.442,1.442,0,0,1-.534.228,1.263,1.263,0,0,0-.638.212.846.846,0,0,1-.149.078.481.481,0,0,0-.219.054l-.037.019a.734.734,0,0,1-.391.133.48.48,0,0,0-.24.019l-.444.154a.459.459,0,0,0-.117.06.5.5,0,0,0-.094.008l-.184.034a.46.46,0,0,0-.081.023,7.781,7.781,0,0,1-1.98.437.47.47,0,0,0-.061.01.472.472,0,0,0-.211.065c-.128.032-.326.079-.444.1-.04-.122-.091-.342-.128-.5-.045-.191-.084-.384-.126-.59l-.065-.309a5.942,5.942,0,0,1-.265-1.291.474.474,0,0,0-.093-.257.413.413,0,0,1,0-.077A.482.482,0,0,0-744.13-365.334Zm12.809,31.707a.687.687,0,0,1-.205-.283.475.475,0,0,0-.09-.127,6.6,6.6,0,0,1-.739-.923,22.939,22.939,0,0,0,6.847-2.015,1.5,1.5,0,0,0,.624-.279l.052-.034a4.309,4.309,0,0,1-.008,1.1c-.008.09-.016.179-.024.268-.027.344-.052.689-.077,1.035-.055.764-.112,1.555-.195,2.326a7.72,7.72,0,0,1-.465,1.714l-.086.244a1.054,1.054,0,0,1-.619.707,1.487,1.487,0,0,1-1.258-.391.513.513,0,0,0-.054-.035l-.369-.2a.475.475,0,0,0-.228-.057.508.508,0,0,0-.079.006,3.793,3.793,0,0,0-.331-.235l-.085-.061a5.242,5.242,0,0,1-1.544-1.453l-.013-.046a.479.479,0,0,0-.137-.219,4.3,4.3,0,0,1-.665-.746h0a.484.484,0,0,0-.085-.094A.481.481,0,0,0-731.321-333.627Zm-7-18.132c.228-.026.456-.052.682-.085l.067-.008a1.274,1.274,0,0,0,.273-.049,24.2,24.2,0,0,0,7.283-3.039c.37-.224.733-.465,1.084-.7l.041-.027.4-.266a23.336,23.336,0,0,1,2.157,6.526c.009.043.02.086.031.13q.025.1.032.143l-1.208.691-.026.016a4.928,4.928,0,0,1-1.53.736.473.473,0,0,0-.142.056l-.269.16c-.17.121-.233.141-.285.135a.473.473,0,0,0-.265.05,22.167,22.167,0,0,1-4.4,1.5l-.478.127c-.744.2-1.517.363-2.27.523l-.657.14c-.95-2.137-1.748-4.309-2.469-6.349A6.729,6.729,0,0,1-738.324-351.759Zm7.743,7.4c.2-.069.385-.153.569-.236l.191-.085.041-.02.026-.013a.456.456,0,0,0,.139-.028,17.29,17.29,0,0,0,3.935-1.908,2.6,2.6,0,0,1,.092.862c0,.152,0,.324.012.483l.008.169a.478.478,0,0,0,.117.292.967.967,0,0,1,.144.524l.014.12c.138,1.137.194,2.309.249,3.442l.034.683a.4.4,0,0,1-.014.186.248.248,0,0,1-.089.033.482.482,0,0,0-.108.042l-.205.111a27.848,27.848,0,0,1-4.371,1.754l-.03.01-.037.012-.017,0-3.809.683-.03.006c-.108,0-.162-.026-.253-.179-.922-1.553-1.816-3.232-2.812-5.282A43.808,43.808,0,0,0-730.582-344.364Zm-14.109-29.863v-.005a.478.478,0,0,0,.107-.306c0-.026,0-.052,0-.08v0a.476.476,0,0,0,.067-.141.859.859,0,0,1,.164-.366.485.485,0,0,0,.076-.1.917.917,0,0,1,1.194-.463,6.393,6.393,0,0,1,2.987,1.781.5.5,0,0,0,.047.039,2.822,2.822,0,0,1,.818.8.465.465,0,0,0,.075.1l.142.143a.459.459,0,0,0,.042.037l.116.093c-.091.046-.189.093-.273.133l-.025.013a22.707,22.707,0,0,1-5.7,2.075,11.851,11.851,0,0,1,.159-3.564A.48.48,0,0,0-744.691-374.227Zm-.022.019h0l-.174-.163Zm3.033,18.727a.475.475,0,0,0-.11-.343,2.146,2.146,0,0,1-.369-1.31.514.514,0,0,0-.014-.085c-.052-.2-.1-.408-.153-.612-.149-.609-.3-1.236-.516-1.852a1.166,1.166,0,0,0,.116-.012,27.8,27.8,0,0,0,5.193-1.355,18.375,18.375,0,0,0,4.988-2.674l.417.845a.469.469,0,0,0,.06.092,2.5,2.5,0,0,1,.413.749c.006.012.013.027.02.038l.19.323a4.4,4.4,0,0,0,.5.886c.091.137.178.266.241.375q.155.307.308.616c.248.5.5,1.016.775,1.52.018.034.031.06.04.078l-.044.032-.2.14a17.624,17.624,0,0,1-2.659,1.641.472.472,0,0,0-.129.088c-.021.021-.038.037-.053.049a.484.484,0,0,0-.247.072l-.255.159a1.615,1.615,0,0,1-.562.271.5.5,0,0,0-.077.024.48.48,0,0,0-.183.079,1.345,1.345,0,0,1-.554.255.474.474,0,0,0-.117.035,19.154,19.154,0,0,1-3.818,1.241c-.479.1-.959.2-1.44.292l-.637.127a2.047,2.047,0,0,1-.631.058,1.68,1.68,0,0,1-.164-.505c-.042-.172-.1-.334-.149-.491l-.227.074.226-.076h0A2.2,2.2,0,0,1-741.68-355.481Z" transform="translate(796.198 380.767)" stroke="#000" stroke-width="1"/>
  </g>
</svg>
