<svg id="Componente_39_1" data-name="Componente 39 – 1" xmlns="http://www.w3.org/2000/svg" width="85.447" height="47.947" viewBox="0 0 85.447 47.947">
  <path id="Trazado_8137" data-name="Trazado 8137" d="M-1605.312,470.569a34.662,34.662,0,0,1-4.5,1c-2.99.261-4.813-1.778-4.388-4.744.531-3.7,2.518-6.743,4.529-9.759,1.25-1.876,1.281-1.851-.341-3.421q-2.647-2.562-5.283-5.136c-.985-.967-1.111-2.1-.348-2.835s1.8-.624,2.762.3c2.185,2.1,4.357,4.222,6.614,6.411l5.165-5.905c-.946-.421-1.821-.837-2.717-1.2a2.917,2.917,0,0,1-1.783-1.926c-1.01-3.037-2.106-6.046-3.159-9.069-.444-1.276-.1-2.2.929-2.586,1-.378,1.921.155,2.363,1.4,1.055,2.969,2.1,5.943,3.264,9.26,1.065-5.783,4.06-9.341,9.846-8.921,4.937.358,7.507,3.757,8.422,8.6.535-1.5,1.074-3,1.6-4.5s1.037-2.985,1.571-4.472c.422-1.172,1.313-1.71,2.267-1.4a1.787,1.787,0,0,1,1.047,2.537c-1.09,3.142-2.156,6.295-3.34,9.4a3.581,3.581,0,0,1-1.465,1.547,24.667,24.667,0,0,1-2.885,1.329l5.151,5.911,4.852-4.7c.628-.608,1.243-1.23,1.884-1.824a1.848,1.848,0,0,1,2.674-.168,1.837,1.837,0,0,1-.22,2.659c-2.138,2.1-4.3,4.177-6.449,6.266-.176.172-.331.365-.521.577a56.4,56.4,0,0,1,3.294,5.292,29.463,29.463,0,0,1,2.377,6.377c.637,2.854-1.334,4.943-4.244,4.7a34.982,34.982,0,0,1-4.6-1c-.642,2.125-1.312,4.343-1.981,6.562-.1.319-.16.648-.271.961a1.849,1.849,0,0,1-2.2,1.367,1.782,1.782,0,0,1-1.183-2.391c.495-1.761,1.034-3.509,1.578-5.256,1-3.213,1.01-3.211-1.861-4.933a1.662,1.662,0,0,0-.325-.091,6.791,6.791,0,0,1-5.892,3.487,6.792,6.792,0,0,1-6.016-3.559c-.893.567-1.793,1.075-2.606,1.7a1.185,1.185,0,0,0-.223,1.027c.668,2.4,1.4,4.79,2.1,7.184a4.651,4.651,0,0,1,.24,1.088,1.59,1.59,0,0,1-1.426,1.761,1.745,1.745,0,0,1-2.051-1.413c-.6-1.945-1.162-3.905-1.744-5.858C-1604.963,471.651-1605.144,471.1-1605.312,470.569Zm9.071-22.468a.262.262,0,0,0-.068.146c-.01,5.117-.04,10.235,0,15.352a3.039,3.039,0,0,0,1.866,2.878c2.264,1.03,4.512-.563,4.534-3.253.033-3.994.009-7.989.009-11.983V448.1Zm-3.579,2.621a51.477,51.477,0,0,0-9.769,13.139,6.991,6.991,0,0,0-1.045,4.365,14.007,14.007,0,0,0,2.684-.653,59.243,59.243,0,0,0,5.394-2.83c2.767-1.66,2.737-1.71,2.737-4.967v-9.055Zm13.744-.1-.332.1c0,3.931-.008,7.862.02,11.793a.967.967,0,0,0,.443.677c2.653,1.533,5.3,3.083,8.005,4.516a7.943,7.943,0,0,0,2.324.434l.282-.415C-1577.034,460.868-1581.8,455.9-1586.077,450.626Zm-7.162-5.744a33.821,33.821,0,0,0,3.739-.867,2.373,2.373,0,0,0,1.541-3.3,5.783,5.783,0,0,0-5.261-3.9,5.822,5.822,0,0,0-5.082,3.981,2.363,2.363,0,0,0,1.522,3.214A33.185,33.185,0,0,0-1593.239,444.882Z" transform="translate(1616.133 -431.575)"/>
  <path id="Trazado_8143" data-name="Trazado 8143" d="M-1607.511,462.643a27.613,27.613,0,0,1-3.583.793,3.062,3.062,0,0,1-3.5-3.779c.423-2.949,2.006-5.372,3.608-7.775,1-1.495,1.021-1.475-.271-2.726q-2.109-2.042-4.209-4.092c-.785-.771-.885-1.674-.277-2.259s1.434-.5,2.2.242c1.741,1.677,3.471,3.364,5.269,5.108l4.115-4.7c-.754-.335-1.451-.667-2.165-.958a2.323,2.323,0,0,1-1.421-1.535c-.8-2.42-1.678-4.817-2.517-7.226-.354-1.016-.082-1.749.74-2.06.8-.3,1.531.124,1.883,1.115.84,2.366,1.67,4.735,2.6,7.378.848-4.607,3.234-7.443,7.845-7.108,3.933.285,5.981,2.993,6.71,6.852.427-1.2.856-2.389,1.279-3.586s.826-2.378,1.252-3.563c.336-.933,1.047-1.362,1.807-1.116a1.424,1.424,0,0,1,.834,2.021c-.869,2.5-1.718,5.015-2.661,7.491a2.853,2.853,0,0,1-1.167,1.233,19.672,19.672,0,0,1-2.3,1.059l4.1,4.709,3.866-3.745c.5-.485.99-.98,1.5-1.453a1.473,1.473,0,0,1,2.13-.134,1.463,1.463,0,0,1-.175,2.119c-1.7,1.674-3.426,3.328-5.139,4.992-.141.137-.264.291-.415.46a44.982,44.982,0,0,1,2.625,4.216,23.484,23.484,0,0,1,1.893,5.08,2.969,2.969,0,0,1-3.381,3.748,27.864,27.864,0,0,1-3.667-.8c-.511,1.693-1.046,3.46-1.578,5.228-.076.254-.127.516-.216.766a1.473,1.473,0,0,1-1.752,1.089,1.42,1.42,0,0,1-.942-1.9c.394-1.4.823-2.8,1.257-4.187.8-2.56.8-2.558-1.483-3.931a1.322,1.322,0,0,0-.259-.072,5.41,5.41,0,0,1-4.694,2.779,5.412,5.412,0,0,1-4.793-2.835c-.711.452-1.429.857-2.077,1.352a.945.945,0,0,0-.178.819c.532,1.915,1.113,3.816,1.672,5.723a3.712,3.712,0,0,1,.191.867,1.267,1.267,0,0,1-1.136,1.4,1.39,1.39,0,0,1-1.634-1.126c-.482-1.55-.926-3.112-1.389-4.667C-1607.234,463.505-1607.378,463.067-1607.511,462.643Zm7.227-17.9a.21.21,0,0,0-.054.116c-.008,4.077-.032,8.154,0,12.231a2.421,2.421,0,0,0,1.487,2.293c1.8.821,3.595-.448,3.613-2.592.026-3.182.007-6.365.007-9.547v-2.5Zm-2.852,2.088a41.017,41.017,0,0,0-7.783,10.469,5.571,5.571,0,0,0-.833,3.478,11.157,11.157,0,0,0,2.139-.52,47.2,47.2,0,0,0,4.3-2.255c2.2-1.323,2.18-1.362,2.18-3.957V446.83Zm10.95-.076-.265.076c0,3.132-.006,6.264.016,9.4a.771.771,0,0,0,.353.539c2.114,1.221,4.222,2.456,6.378,3.6a6.329,6.329,0,0,0,1.851.346l.224-.331C-1584.982,454.914-1588.78,450.954-1592.186,446.754Zm-5.706-4.576a26.943,26.943,0,0,0,2.979-.691,1.89,1.89,0,0,0,1.227-2.631,4.608,4.608,0,0,0-4.192-3.111,4.638,4.638,0,0,0-4.049,3.172,1.882,1.882,0,0,0,1.212,2.561A26.445,26.445,0,0,0-1597.892,442.177Z" transform="translate(1664.903 -421.829)"/>
</svg>
