<svg xmlns="http://www.w3.org/2000/svg" width="65.303" height="63.785" viewBox="0 0 65.303 63.785">
  <g id="Componente_41_1" data-name="Componente 41 – 1" transform="translate(0.494 0.505)">
    <g id="Grupo_13903" data-name="Grupo 13903">
      <g id="Grupo_13902" data-name="Grupo 13902">
        <path id="Trazado_8101" data-name="Trazado 8101" d="M1094.777-197.348l-4.746-1.932c-.82,1.634-1.6,3.2-2.391,4.761a3.922,3.922,0,0,1-4.055,2.479c-1.108-.086-2.228-.02-3.342-.014-1.387.008-2.887,0-3.309-1.644s.685-2.744,1.9-3.656c.567-.426,1.6-.707,1.693-1.193a11.573,11.573,0,0,0-.053-3.642,3.835,3.835,0,0,0-.873-1.7,18.135,18.135,0,0,1-4.146-14.246c-1.235-.248-2.368-.433-3.479-.706-4.407-1.083-6.147-3.519-5.776-8.033a16.67,16.67,0,0,1,13.237-14.8c.34-.073.681-.137,1.08-.217a34.205,34.205,0,0,1,.575-5.545,17.542,17.542,0,0,1,2.369-5.581c1.909-2.712,4.413-2.231,5.7.843.111.266.225.532.362.855a26.219,26.219,0,0,1,2.768-1.449c2.367-.908,4.444.088,4.695,2.591a10.7,10.7,0,0,1-.745,5.613,58.291,58.291,0,0,1-5.316,7.987,1.905,1.905,0,0,0-.424,2.152c.55,1.394.869,2.88,1.329,4.477a21.613,21.613,0,0,1,11.8-2.3,23.778,23.778,0,0,1,21.156,18.229,2.136,2.136,0,0,0,1.244,1.3,5.866,5.866,0,0,1,4.28,6.915c-.741,4.05-4.335,8.239-8.821,7.77a2.147,2.147,0,0,0-1.468.662,17.24,17.24,0,0,1-13.465,5.34c-2.634-.114-5.278-.014-7.917-.021C1094.574-192.068,1093.578-193.4,1094.777-197.348Zm1.377,2.661a12.368,12.368,0,0,0,1.824.345c3.635,0,7.271.035,10.9-.061a12.943,12.943,0,0,0,7.435-2.851c7.232-5.387,8.673-15.474,3.328-23.259-5.556-8.092-17.172-12.579-27.384-7.212-1.651.868-2.141.533-2.443-1.269a9.417,9.417,0,0,0-.966-3.7c-1.758-2.557-1.042-4.228,1.063-6.2a15.766,15.766,0,0,0,4.782-8.253c.227-1.092-.243-2.328-.395-3.5a11.93,11.93,0,0,0-3.236,1.3,15.355,15.355,0,0,0-5.115,7.827,2.117,2.117,0,0,1-2.589,1.832,14.446,14.446,0,0,0-15.008,14.006,3.991,3.991,0,0,0,1.739,3.626c4.859,3.234,12.52,1.25,15.305-3.9.251-.464,1.036-.638,1.572-.946.149.64.628,1.476.386,1.885a11.584,11.584,0,0,1-2.852,3.68,24.05,24.05,0,0,1-5.645,2.7c-.94.343-1.267.7-1.331,1.661a14.144,14.144,0,0,0,3.264,10.645c2.371,2.729,2.561,5.819,1.933,9.086-.1.544-.883,1.018-1.436,1.4a15.344,15.344,0,0,1-1.913.981c4.82,1.249,5.379.985,7.411-3.073.184-.366.351-.744.563-1.094a7.714,7.714,0,0,0,.266-8.478c-.241-.414.152-1.2.251-1.808.592.3,1.561.47,1.711.916a25.709,25.709,0,0,1,1.331,5.547,2.088,2.088,0,0,0,1.234,1.987,10.236,10.236,0,0,0,9.6.39c-.179-.277-.4-.607-.609-.943a11.716,11.716,0,0,1,2.287-15.553c.519-.447,1.829-.767,2.185-.461.988.845-.016,1.492-.652,2.08a9.674,9.674,0,0,0-3.49,8.093c.26,3.483,2.167,5.949,4.9,7.952.432.317.436,1.22.638,1.853-.574.035-1.252.286-1.7.068-2.8-1.348-5.348-.456-7.824.809C1096.959-196.321,1096.715-195.526,1096.153-194.688Zm26.734-5.824c2.368.336,5.207-3.8,5.268-6.378a3.125,3.125,0,0,0-2.622-3.408Zm-39.522-41.7c1.285-2.179,2.754-4.322,3.834-6.647a3.3,3.3,0,0,0-.929-3.593C1083.664-250.573,1082.178-245.026,1083.366-242.208Z" transform="translate(-1066.152 254.798)" stroke="#000" stroke-width="1"/>
      </g>
    </g>
    <ellipse id="Elipse_52" data-name="Elipse 52" cx="1.996" cy="1.996" rx="1.996" ry="1.996" transform="translate(9.074 21.733)" stroke="#000" stroke-width="1"/>
  </g>
</svg>
