<svg xmlns="http://www.w3.org/2000/svg" xmlns:xlink="http://www.w3.org/1999/xlink" width="78.626" height="78.977" viewBox="0 0 78.626 78.977">
  <defs>
    <linearGradient id="linear-gradient" x1="0.49" y1="0.06" x2="0.495" y2="0.915" gradientUnits="objectBoundingBox">
      <stop offset="0" stop-color="#57d163"/>
      <stop offset="1" stop-color="#23b33a"/>
    </linearGradient>
  </defs>
  <g id="WhatsApp" transform="translate(-12.966 -12.802)">
    <path id="Trazado_7963" data-name="Trazado 7963" d="M35.325,79.672l1.183.7a32.325,32.325,0,0,0,16.477,4.512H53A32.367,32.367,0,1,0,25.574,69.719l.77,1.224L23.073,82.884Zm-21.6,12.463,5.526-20.176A38.952,38.952,0,1,1,53,91.461H52.98a38.928,38.928,0,0,1-18.612-4.74Zm0,0" transform="translate(-0.355 -0.356)" fill="#b3b3b3"/>
    <path id="Trazado_7964" data-name="Trazado 7964" d="M12.966,91.379,18.492,71.2a38.952,38.952,0,1,1,33.75,19.5h-.017a38.928,38.928,0,0,1-18.612-4.74Z" fill="#fff"/>
    <path id="Trazado_7965" data-name="Trazado 7965" d="M58.392,25.227A32.379,32.379,0,0,0,30.955,74.81l.77,1.224L28.454,87.976l12.253-3.213,1.183.7a32.331,32.331,0,0,0,16.477,4.512h.012a32.375,32.375,0,0,0,.012-64.75Z" transform="translate(-6.137 -5.848)" fill="rgba(0,0,0,0)"/>
    <path id="Trazado_7966" data-name="Trazado 7966" d="M58.392,25.227A32.379,32.379,0,0,0,30.955,74.81l.77,1.224L28.454,87.976l12.253-3.213,1.183.7a32.33,32.33,0,0,0,16.477,4.512h.012a32.374,32.374,0,0,0,.012-64.749Z" transform="translate(-6.137 -5.848)" fill="url(#linear-gradient)"/>
    <path id="Trazado_7967" data-name="Trazado 7967" d="M59.831,54.088c-.729-1.62-1.5-1.653-2.19-1.681l-1.865-.023A3.574,3.574,0,0,0,53.18,53.6a10.913,10.913,0,0,0-3.406,8.116c0,4.788,3.487,9.415,3.973,10.065s6.732,10.789,16.625,14.69c8.221,3.242,9.893,2.6,11.678,2.435s5.758-2.354,6.568-4.627.811-4.22.568-4.627-.892-.649-1.866-1.136-5.758-2.841-6.65-3.166-1.54-.486-2.19.488S75.969,79,75.4,79.654s-1.135.731-2.109.245a26.566,26.566,0,0,1-7.826-4.83,29.365,29.365,0,0,1-5.414-6.739c-.569-.974-.06-1.5.428-1.986.437-.436.973-1.137,1.461-1.7a6.6,6.6,0,0,0,.972-1.623,1.792,1.792,0,0,0-.081-1.7c-.244-.486-2.134-5.3-3-7.224" transform="translate(-17.323 -18.629)" fill="#fff" fill-rule="evenodd"/>
  </g>
</svg>
