<svg xmlns="http://www.w3.org/2000/svg" width="18.143" height="18.139" viewBox="0 0 18.143 18.139">
  <g id="phone-call-auricular-symbol-in-black_icon-icons.com_56483" transform="translate(0 -0.043)">
    <path id="Trazado_7989" data-name="Trazado 7989" d="M18.061,14.5l-.09-.272a2.551,2.551,0,0,0-1.559-1.473l-2.384-.651a2.336,2.336,0,0,0-2.041.533l-.863.863a9.15,9.15,0,0,1-6.439-6.44L5.547,6.2a2.333,2.333,0,0,0,.533-2.04l-.65-2.385A2.548,2.548,0,0,0,3.956.216L3.684.125A2.163,2.163,0,0,0,1.669.6L.378,1.891A2.407,2.407,0,0,0,0,2.779a15.23,15.23,0,0,0,15.368,15.4,2.4,2.4,0,0,0,.927-.374l1.29-1.29A2.163,2.163,0,0,0,18.061,14.5Z" transform="translate(0 0)" fill="#fff"/>
  </g>
</svg>
