<svg xmlns="http://www.w3.org/2000/svg" width="33.618" height="33.618" viewBox="0 0 33.618 33.618">
  <g id="Grupo_13822" data-name="Grupo 13822" transform="translate(0 0)">
    <path id="Sustracción_1" data-name="Sustracción 1" d="M16.809,33.618A16.809,16.809,0,0,1,4.923,4.923,16.809,16.809,0,1,1,28.695,28.695,16.7,16.7,0,0,1,16.809,33.618Zm4.029-16.632c2.221,0,2.221,2.105,2.221,3.642v6.7h4.262l0-7.555c0-3.4-.62-6.544-5.117-6.544a4.509,4.509,0,0,0-4.041,2.221h-.06V13.57h-4.1V27.325h4.266V20.514C18.277,18.77,18.581,16.987,20.838,16.987ZM7.064,13.57V27.325h4.271V13.57ZM9.2,6.724A2.485,2.485,0,1,0,11.67,9.2,2.476,2.476,0,0,0,9.2,6.724Z" transform="translate(0 0)" fill="#fff"/>
  </g>
</svg>
