<svg xmlns="http://www.w3.org/2000/svg" width="25.561" height="17.696" viewBox="0 0 25.561 17.696">
  <g id="Icon_ionic-ios-mail" data-name="Icon ionic-ios-mail" transform="translate(-3.375 -7.875)">
    <path id="Trazado_7996" data-name="Trazado 7996" d="M28.727,10.352l-6.612,6.734a.119.119,0,0,0,0,.172l4.627,4.928a.8.8,0,0,1,0,1.131.8.8,0,0,1-1.131,0L21,18.407a.126.126,0,0,0-.178,0L19.7,19.55a4.947,4.947,0,0,1-3.527,1.487,5.047,5.047,0,0,1-3.6-1.53l-1.081-1.1a.126.126,0,0,0-.178,0L6.705,23.317a.8.8,0,0,1-1.131,0,.8.8,0,0,1,0-1.131L10.2,17.258a.131.131,0,0,0,0-.172L3.584,10.352a.121.121,0,0,0-.209.086V23.913a1.972,1.972,0,0,0,1.966,1.966H26.97a1.972,1.972,0,0,0,1.966-1.966V10.438A.123.123,0,0,0,28.727,10.352Z" transform="translate(0 -0.308)" fill="#fff"/>
    <path id="Trazado_7997" data-name="Trazado 7997" d="M16.263,19.126a3.341,3.341,0,0,0,2.4-1.008l9.641-9.813a1.931,1.931,0,0,0-1.217-.43H5.442a1.918,1.918,0,0,0-1.217.43l9.641,9.813A3.341,3.341,0,0,0,16.263,19.126Z" transform="translate(-0.107)" fill="#fff"/>
  </g>
</svg>
