<svg id="Grupo_13802" data-name="Grupo 13802" xmlns="http://www.w3.org/2000/svg" width="33.824" height="33.825" viewBox="0 0 33.824 33.825">
  <ellipse id="Elipse_9" data-name="Elipse 9" cx="16.912" cy="16.912" rx="16.912" ry="16.912" transform="translate(0 0)" fill="#fff"/>
  <path id="icons8-instagram" d="M8.734,3A5.551,5.551,0,0,0,3,8.334v8.534A5.551,5.551,0,0,0,8.734,22.2h9.175a5.551,5.551,0,0,0,5.734-5.334V8.334A5.551,5.551,0,0,0,17.909,3Zm0,2.134h9.175a3.331,3.331,0,0,1,3.441,3.2v8.534a3.331,3.331,0,0,1-3.441,3.2H8.734a3.331,3.331,0,0,1-3.441-3.2V8.334A3.331,3.331,0,0,1,8.734,5.134ZM19.056,6.2a1.109,1.109,0,0,0-1.147,1.067,1.15,1.15,0,0,0,2.294,0A1.109,1.109,0,0,0,19.056,6.2ZM13.322,7.267A5.551,5.551,0,0,0,7.587,12.6a5.551,5.551,0,0,0,5.734,5.334A5.551,5.551,0,0,0,19.056,12.6,5.551,5.551,0,0,0,13.322,7.267Zm0,2.134a3.331,3.331,0,0,1,3.441,3.2,3.331,3.331,0,0,1-3.441,3.2,3.331,3.331,0,0,1-3.441-3.2A3.331,3.331,0,0,1,13.322,9.4Z" transform="translate(3.729 5.308)"/>
</svg>
