<svg xmlns="http://www.w3.org/2000/svg" width="267.079" height="84.064" viewBox="0 0 267.079 84.064">
  <g id="Grupo_1" data-name="Grupo 1" transform="translate(-115.3 -247.979)">
    <path id="Trazado_1" data-name="Trazado 1" d="M133.075,346.271c-1.115-3.32-2.647-6.07-6.906-6.07-3.026,0-5.839,2.177-5.839,5.07,0,7.4,16.149,4.5,16.149,14.877,0,5.19-4.3,8.391-9.884,8.391-5.917,0-10.138-3.245-11.3-8.391l3.368-.718a8.223,8.223,0,0,0,7.971,6.548c3.4,0,6.349-2.315,6.349-5.483,0-8.241-16.153-4.809-16.153-14.764,0-4.881,4.266-8.073,9.543-8.073,5.239,0,8.618,3.453,9.855,7.732Z" transform="translate(0 -36.498)" fill="#fff"/>
    <path id="Trazado_2" data-name="Trazado 2" d="M171.447,373.836l-.352-2.657c-1.913,1.676-4.044,3.272-6.813,3.272a6.275,6.275,0,0,1-6.526-6.026c0-6.019,7.077-7.317,12.273-8.579l1.066-.274V358.4c0-2.4-1.828-3.7-4.473-3.7-2.6,0-4.387,1.516-5.746,3.307l-2.351-1.559a9.928,9.928,0,0,1,8.1-4.267c3.2,0,7.8,1.751,7.8,6.55v10.457a11.5,11.5,0,0,0,.627,4.648Zm-1.666-11.476c-3.158.839-8.9,1.985-8.9,5.765a3.6,3.6,0,0,0,3.531,3.507c2.643,0,5.08-1.646,6.688-3.432v-6.184Z" transform="translate(-17.279 -42.407)" fill="#fff"/>
    <path id="Trazado_3" data-name="Trazado 3" d="M197.945,373.836h-3.322V352.788h3.322v2.166c1.95-1.392,3.787-2.774,6.47-2.774,3.329,0,6.013,1.631,6.013,7.126v14.529h-3.321V360.074c0-2.211.43-5.453-3.111-5.453-2.045,0-4.73,1.793-6.051,3.207Z" transform="translate(-32.283 -42.407)" fill="#fff"/>
    <path id="Trazado_4" data-name="Trazado 4" d="M233.354,341.953h-3.321v-3.272h3.321Zm0,26.388h-3.321V347.294h3.321Z" transform="translate(-46.694 -36.913)" fill="#fff"/>
    <path id="Trazado_5" data-name="Trazado 5" d="M258.014,338.675h3.329v29.664h-3.329v-2.391a7.813,7.813,0,0,1-6,3.005c-3.2,0-8.611-2.632-8.611-10.712,0-8.278,4.69-11.557,8.735-11.557a9.062,9.062,0,0,1,5.881,2.774Zm0,13.994a6.354,6.354,0,0,0-5.5-3.394c-4.632,0-5.622,5.721-5.622,8.9,0,6.175,3.281,8.2,5.584,8.2,2.34,0,4.6-2.141,5.538-3.945Z" transform="translate(-52.133 -36.911)" fill="#fff"/>
    <path id="Trazado_6" data-name="Trazado 6" d="M295.145,373.836l-.342-2.657c-1.9,1.676-4.045,3.272-6.824,3.272a6.277,6.277,0,0,1-6.508-6.026c0-6.019,7.071-7.317,12.264-8.579l1.068-.274V358.4c0-2.4-1.819-3.7-4.464-3.7-2.607,0-4.4,1.516-5.756,3.307l-2.342-1.559a9.916,9.916,0,0,1,8.1-4.267c3.189,0,7.792,1.751,7.792,6.55v10.457a11.7,11.7,0,0,0,.638,4.648Zm-1.657-11.476c-3.149.839-8.9,1.985-8.9,5.765a3.606,3.606,0,0,0,3.528,3.507A9.525,9.525,0,0,0,294.8,368.2v-6.184Z" transform="translate(-67.627 -42.407)" fill="#fff"/>
    <path id="Trazado_7" data-name="Trazado 7" d="M331.939,338.675h3.322v29.664h-3.322v-2.391a7.843,7.843,0,0,1-6.013,3.005c-3.189,0-8.611-2.632-8.611-10.712,0-8.278,4.691-11.557,8.745-11.557a9.053,9.053,0,0,1,5.879,2.774Zm0,13.994a6.351,6.351,0,0,0-5.5-3.394c-4.652,0-5.624,5.721-5.624,8.9,0,6.175,3.274,8.2,5.576,8.2,2.351,0,4.607-2.141,5.548-3.945Z" transform="translate(-82.215 -36.911)" fill="#fff"/>
    <path id="Trazado_8" data-name="Trazado 8" d="M396.526,368.342h-3.587l-3.026-9.447H379.151l-2.873,9.447H372.7l9.342-29.661h4.94ZM384.47,340.661h-.094l-4.34,15.559H389.1Z" transform="translate(-104.756 -36.913)" fill="#fff"/>
    <path id="Trazado_9" data-name="Trazado 9" d="M420.5,373.836h-3.33V352.788h3.33v2.166c1.96-1.392,3.8-2.774,6.47-2.774,3.33,0,6.022,1.631,6.022,7.126v14.529h-3.33V360.074c0-2.211.419-5.453-3.12-5.453-2.036,0-4.719,1.793-6.043,3.207Z" transform="translate(-122.855 -42.407)" fill="#fff"/>
    <path id="Trazado_10" data-name="Trazado 10" d="M455.932,341.953H452.6v-3.272h3.332Zm0,26.388H452.6V347.294h3.332Z" transform="translate(-137.273 -36.913)" fill="#fff"/>
    <path id="Trazado_11" data-name="Trazado 11" d="M470.287,373.836h-3.31V352.788h3.31v1.867c2.057-1.483,3.8-2.475,6.528-2.475a6.319,6.319,0,0,1,5.662,2.863c2.168-1.559,4.26-2.825,7.2-2.863,3.31,0,6.013,1.631,6.013,7.126v14.529h-3.332V360.074c0-2.211.419-5.453-3.1-5.453A9.622,9.622,0,0,0,483,357.409v16.427h-3.329V360.074c0-2.211.426-5.453-3.122-5.453-2.845.079-4.558,1.4-6.262,2.788Z" transform="translate(-143.124 -42.407)" fill="#fff"/>
    <path id="Trazado_12" data-name="Trazado 12" d="M536.756,373.836l-.34-2.657c-1.924,1.676-4.045,3.272-6.815,3.272a6.272,6.272,0,0,1-6.516-6.026c0-6.019,7.069-7.317,12.263-8.579l1.068-.274V358.4c0-2.4-1.837-3.7-4.473-3.7-2.6,0-4.4,1.516-5.747,3.307l-2.351-1.559a9.928,9.928,0,0,1,8.1-4.267c3.2,0,7.792,1.751,7.792,6.55v10.457a11.86,11.86,0,0,0,.638,4.648ZM535.1,362.36c-3.158.839-8.9,1.985-8.9,5.765a3.608,3.608,0,0,0,3.541,3.507c2.634,0,5.061-1.646,6.679-3.432v-6.184Z" transform="translate(-165.958 -42.407)" fill="#fff"/>
    <rect id="Rectángulo_1" data-name="Rectángulo 1" width="3.321" height="29.664" transform="translate(379.058 301.764)" fill="#fff"/>
    <path id="Trazado_13" data-name="Trazado 13" d="M148.7,293.662H130.8l-15.5-45.683h16.156l8.515,27.706h.143l8.374-27.706h16.45Z" transform="translate(0 0)" fill="#fff"/>
    <path id="Trazado_14" data-name="Trazado 14" d="M200.783,247.979H216.8V263.84h14.995V247.979h16.013v45.683H231.793v-18.1H216.8v18.1H200.783Z" transform="translate(-34.79 0)" fill="#fff"/>
    <path id="Trazado_15" data-name="Trazado 15" d="M290.843,247.979h26.269c17.317,0,23.436,11.276,23.436,22.781,0,14-8.45,22.9-26.566,22.9H290.843Zm16,33.979h6.262c9.962,0,11.418-7.114,11.418-11.388,0-2.884-1.02-10.875-12.58-10.875h-5.1Z" transform="translate(-71.442)" fill="#fff"/>
  </g>
</svg>
