<svg id="Componente_30_1" data-name="Componente 30 – 1" xmlns="http://www.w3.org/2000/svg" width="250.493" height="78.995" viewBox="0 0 250.493 78.995">
  <path id="Trazado_1" data-name="Trazado 1" d="M131.972,345.752c-1.046-3.12-2.483-5.7-6.477-5.7-2.838,0-5.476,2.046-5.476,4.765,0,6.956,15.147,4.23,15.147,13.98,0,4.877-4.034,7.885-9.27,7.885-5.55,0-9.508-3.049-10.595-7.885l3.159-.675a7.716,7.716,0,0,0,7.476,6.153c3.19,0,5.955-2.176,5.955-5.152,0-7.744-15.15-4.519-15.15-13.874,0-4.586,4-7.586,8.95-7.586,4.914,0,8.083,3.245,9.243,7.266Z" transform="translate(-115.3 -287.684)" fill="#161615"/>
  <path id="Trazado_2" data-name="Trazado 2" d="M170.6,372.53l-.33-2.5c-1.794,1.575-3.793,3.074-6.39,3.074a5.89,5.89,0,0,1-6.121-5.662c0-5.656,6.638-6.876,11.511-8.061l1-.257v-1.1c0-2.254-1.714-3.473-4.195-3.473a6.71,6.71,0,0,0-5.39,3.107l-2.205-1.465a9.306,9.306,0,0,1,7.595-4.01c3,0,7.318,1.646,7.318,6.155v9.826a10.824,10.824,0,0,0,.588,4.368Zm-1.562-10.784c-2.962.788-8.352,1.865-8.352,5.417a3.379,3.379,0,0,0,3.312,3.3,8.925,8.925,0,0,0,6.272-3.225v-5.811Z" transform="translate(-134.142 -294.113)" fill="#161615"/>
  <path id="Trazado_3" data-name="Trazado 3" d="M197.738,372.53h-3.115V352.752h3.115v2.036c1.829-1.308,3.552-2.606,6.068-2.606,3.122,0,5.64,1.533,5.64,6.7V372.53h-3.115V359.6c0-2.078.4-5.124-2.918-5.124-1.918,0-4.436,1.685-5.676,3.014Z" transform="translate(-150.503 -294.113)" fill="#161615"/>
  <path id="Trazado_4" data-name="Trazado 4" d="M233.148,341.756h-3.115v-3.075h3.115Zm0,24.8h-3.115V346.775h3.115Z" transform="translate(-166.219 -288.136)" fill="#161615"/>
  <path id="Trazado_5" data-name="Trazado 5" d="M257.106,338.675h3.122V366.55h-3.122V364.3a7.323,7.323,0,0,1-5.632,2.824c-3,0-8.077-2.473-8.077-10.066,0-7.779,4.4-10.861,8.192-10.861a8.492,8.492,0,0,1,5.516,2.606Zm0,13.15a5.958,5.958,0,0,0-5.159-3.189c-4.344,0-5.273,5.376-5.273,8.36,0,5.8,3.077,7.705,5.237,7.705,2.195,0,4.31-2.012,5.194-3.707Z" transform="translate(-172.15 -288.133)" fill="#161615"/>
  <path id="Trazado_6" data-name="Trazado 6" d="M294.3,372.53l-.321-2.5c-1.785,1.575-3.794,3.074-6.4,3.074a5.892,5.892,0,0,1-6.1-5.662c0-5.656,6.632-6.876,11.5-8.061l1-.257v-1.1c0-2.254-1.706-3.473-4.187-3.473a6.714,6.714,0,0,0-5.4,3.107l-2.2-1.465a9.3,9.3,0,0,1,7.6-4.01c2.991,0,7.308,1.646,7.308,6.155v9.826a11.017,11.017,0,0,0,.6,4.368Zm-1.554-10.784c-2.953.788-8.352,1.865-8.352,5.417a3.385,3.385,0,0,0,3.309,3.3,8.928,8.928,0,0,0,6.276-3.225v-5.811Z" transform="translate(-189.048 -294.113)" fill="#161615"/>
  <path id="Trazado_7" data-name="Trazado 7" d="M331.03,338.675h3.115V366.55H331.03V364.3a7.352,7.352,0,0,1-5.64,2.824c-2.991,0-8.077-2.473-8.077-10.066,0-7.779,4.4-10.861,8.2-10.861a8.484,8.484,0,0,1,5.514,2.606Zm0,13.15a5.955,5.955,0,0,0-5.159-3.189c-4.363,0-5.274,5.376-5.274,8.36,0,5.8,3.071,7.705,5.23,7.705,2.205,0,4.321-2.012,5.2-3.707Z" transform="translate(-204.954 -288.133)" fill="#161615"/>
  <path id="Trazado_8" data-name="Trazado 8" d="M395.046,366.553h-3.365l-2.838-8.877H378.751l-2.695,8.877H372.7l8.762-27.872H386.1Zm-11.307-26.012h-.088l-4.07,14.62h8.5Z" transform="translate(-229.535 -288.136)" fill="#161615"/>
  <path id="Trazado_9" data-name="Trazado 9" d="M420.3,372.53h-3.123V352.752H420.3v2.036c1.838-1.308,3.561-2.606,6.069-2.606,3.124,0,5.648,1.533,5.648,6.7V372.53h-3.123V359.6c0-2.078.393-5.124-2.926-5.124-1.91,0-4.426,1.685-5.668,3.014Z" transform="translate(-249.272 -294.113)" fill="#161615"/>
  <path id="Trazado_10" data-name="Trazado 10" d="M455.725,341.756H452.6v-3.075h3.125Zm0,24.8H452.6V346.775h3.125Z" transform="translate(-264.994 -288.136)" fill="#161615"/>
  <path id="Trazado_11" data-name="Trazado 11" d="M470.082,372.53h-3.1V352.752h3.1v1.755a9.648,9.648,0,0,1,6.123-2.326,5.923,5.923,0,0,1,5.31,2.69c2.033-1.465,4-2.654,6.756-2.69,3.1,0,5.64,1.533,5.64,6.7V372.53h-3.125V359.6c0-2.078.393-5.124-2.907-5.124a9.016,9.016,0,0,0-5.873,2.62V372.53h-3.122V359.6c0-2.078.4-5.124-2.928-5.124-2.668.075-4.275,1.319-5.873,2.62Z" transform="translate(-271.375 -294.113)" fill="#161615"/>
  <path id="Trazado_12" data-name="Trazado 12" d="M535.907,372.53l-.319-2.5c-1.8,1.575-3.794,3.074-6.392,3.074a5.888,5.888,0,0,1-6.111-5.662c0-5.656,6.63-6.876,11.5-8.061l1-.257v-1.1c0-2.254-1.723-3.473-4.2-3.473a6.7,6.7,0,0,0-5.39,3.107l-2.205-1.465a9.306,9.306,0,0,1,7.6-4.01c3,0,7.308,1.646,7.308,6.155v9.826a11.168,11.168,0,0,0,.6,4.368Zm-1.552-10.784c-2.962.788-8.352,1.865-8.352,5.417a3.388,3.388,0,0,0,3.321,3.3,8.942,8.942,0,0,0,6.264-3.225v-5.811Z" transform="translate(-296.274 -294.113)" fill="#161615"/>
  <rect id="Rectángulo_1" data-name="Rectángulo 1" width="3.115" height="27.876" transform="translate(247.378 50.542)" fill="#161615"/>
  <path id="Trazado_13" data-name="Trazado 13" d="M146.625,290.908H129.837L115.3,247.979h15.153l7.986,26.036h.134l7.854-26.036h15.429Z" transform="translate(-115.3 -247.979)" fill="#161615"/>
  <path id="Trazado_14" data-name="Trazado 14" d="M200.783,247.979H215.8v14.9h14.063v-14.9h15.019v42.928H229.867V273.9H215.8v17.012H200.783Z" transform="translate(-153.237 -247.979)" fill="#161615"/>
  <path id="Trazado_15" data-name="Trazado 15" d="M290.843,247.979H315.48c16.242,0,21.98,10.6,21.98,21.407,0,13.153-7.925,21.521-24.917,21.521h-21.7Zm15.009,31.93h5.873c9.343,0,10.709-6.685,10.709-10.7,0-2.711-.956-10.22-11.8-10.22h-4.783Z" transform="translate(-193.206 -247.979)" fill="#161615"/>
</svg>
