<svg id="Icon_ionic-ios-mail" data-name="Icon ionic-ios-mail" xmlns="http://www.w3.org/2000/svg" width="36.135" height="25.018" viewBox="0 0 36.135 25.018">
  <path id="Trazado_6893" data-name="Trazado 6893" d="M39.214,10.367l-9.346,9.521a.168.168,0,0,0,0,.243L36.409,27.1a1.127,1.127,0,0,1,0,1.6,1.132,1.132,0,0,1-1.6,0L28.3,21.756a.178.178,0,0,0-.252,0l-1.59,1.616a6.993,6.993,0,0,1-4.986,2.1,7.134,7.134,0,0,1-5.09-2.163l-1.529-1.555a.178.178,0,0,0-.252,0L8.083,28.7a1.132,1.132,0,0,1-1.6,0,1.127,1.127,0,0,1,0-1.6l6.541-6.967a.185.185,0,0,0,0-.243L3.67,10.367a.171.171,0,0,0-.3.122v19.05a2.788,2.788,0,0,0,2.78,2.78H36.73a2.788,2.788,0,0,0,2.78-2.78V10.489A.174.174,0,0,0,39.214,10.367Z" transform="translate(-3.375 -7.301)" fill="#009a17"/>
  <path id="Trazado_6894" data-name="Trazado 6894" d="M21.242,23.78a4.722,4.722,0,0,0,3.4-1.425L38.267,8.483a2.73,2.73,0,0,0-1.72-.608H5.946a2.712,2.712,0,0,0-1.72.608L17.854,22.356A4.723,4.723,0,0,0,21.242,23.78Z" transform="translate(-3.175 -7.875)" fill="#009a17"/>
</svg>
