<svg xmlns="http://www.w3.org/2000/svg" width="31.325" height="31.327" viewBox="0 0 31.325 31.327">
  <path id="Icon_awesome-phone-alt" data-name="Icon awesome-phone-alt" d="M30.432,22.138,23.579,19.2a1.468,1.468,0,0,0-1.713.422l-3.035,3.708A22.679,22.679,0,0,1,7.99,12.489L11.7,9.454a1.465,1.465,0,0,0,.422-1.713L9.184.888A1.478,1.478,0,0,0,7.5.037L1.138,1.506A1.468,1.468,0,0,0,0,2.937,28.387,28.387,0,0,0,28.389,31.328a1.468,1.468,0,0,0,1.432-1.138l1.468-6.363a1.486,1.486,0,0,0-.857-1.689Z" transform="translate(0 0)" fill="#009a17"/>
</svg>
