<svg xmlns="http://www.w3.org/2000/svg" width="47.414" height="66.221" viewBox="0 0 47.414 66.221">
  <path id="Trazado_7959" data-name="Trazado 7959" d="M938.091,254.755c8.093,1.65,14.205,5.948,17.8,13.495a20.812,20.812,0,0,1,1.136,16.223c-3.383,9.947-8.558,19-13.8,28.027-1.062,1.826-2.1,3.673-3.279,5.422-2.661,3.943-8.369,4.149-10.863.141-6.494-10.438-12.525-21.109-16.971-32.656-4.789-12.434,3.586-27.664,17.759-30.39.311-.06.613-.174.918-.263ZM934.5,285.864a9.189,9.189,0,1,0-9.339-9.166A9.221,9.221,0,0,0,934.5,285.864Z" transform="translate(-910.756 -254.755)"/>
</svg>
