<svg id="Componente_31_1" data-name="Componente 31 – 1" xmlns="http://www.w3.org/2000/svg" width="26.653" height="26.653" viewBox="0 0 26.653 26.653">
  <path id="Sustracción_1" data-name="Sustracción 1" d="M13.326,26.653A13.326,13.326,0,0,1,3.9,3.9,13.326,13.326,0,1,1,22.749,22.75,13.239,13.239,0,0,1,13.326,26.653ZM16.52,13.467c1.761,0,1.761,1.669,1.761,2.887v5.309H21.66l0-5.99c0-2.695-.491-5.188-4.057-5.188a3.574,3.574,0,0,0-3.2,1.761h-.047V10.759H11.108v10.9H14.49v-5.4C14.49,14.881,14.731,13.467,16.52,13.467ZM5.6,10.759v10.9H8.986v-10.9ZM7.291,5.331A1.97,1.97,0,1,0,9.252,7.292,1.963,1.963,0,0,0,7.291,5.331Z" fill="#111"/>
</svg>
