<svg id="Componente_32_1" data-name="Componente 32 – 1" xmlns="http://www.w3.org/2000/svg" width="26.816" height="26.817" viewBox="0 0 26.816 26.817">
  <ellipse id="Elipse_9" data-name="Elipse 9" cx="13.408" cy="13.408" rx="13.408" ry="13.408" fill="#111"/>
  <path id="icons8-instagram" d="M7.546,3A4.4,4.4,0,0,0,3,7.229v6.766a4.4,4.4,0,0,0,4.546,4.229H14.82a4.4,4.4,0,0,0,4.546-4.229V7.229A4.4,4.4,0,0,0,14.82,3Zm0,1.691H14.82a2.641,2.641,0,0,1,2.728,2.537v6.766a2.641,2.641,0,0,1-2.728,2.537H7.546a2.641,2.641,0,0,1-2.728-2.537V7.229A2.641,2.641,0,0,1,7.546,4.691Zm8.183.846a.879.879,0,0,0-.909.846.912.912,0,0,0,1.818,0A.879.879,0,0,0,15.729,5.537Zm-4.546.846a4.4,4.4,0,0,0-4.546,4.229,4.4,4.4,0,0,0,4.546,4.229,4.4,4.4,0,0,0,4.546-4.229A4.4,4.4,0,0,0,11.183,6.383Zm0,1.691a2.641,2.641,0,0,1,2.728,2.537,2.641,2.641,0,0,1-2.728,2.537,2.641,2.641,0,0,1-2.728-2.537A2.641,2.641,0,0,1,11.183,8.074Z" transform="translate(2.336 2.797)" fill="#fff"/>
</svg>
